<svg xmlns="http://www.w3.org/2000/svg" xmlns:xlink="http://www.w3.org/1999/xlink" viewBox="0 0 479 172"><defs><style>.cls-1{fill:url(#Degradado_sin_nombre_47);}.cls-2{fill:url(#Degradado_sin_nombre_164);}.cls-3{fill:#333;}.cls-4{fill:#bcb19a;}.cls-5{fill:url(#Degradado_sin_nombre_99);}.cls-6{fill:url(#Degradado_sin_nombre_99-2);}.cls-7{fill:url(#Degradado_sin_nombre_99-3);}.cls-8{fill:url(#Degradado_sin_nombre_99-4);}.cls-9{fill:url(#Degradado_sin_nombre_99-5);}.cls-10{fill:url(#Degradado_sin_nombre_99-6);}.cls-11{fill:url(#Degradado_sin_nombre_99-7);}.cls-12{fill:url(#Degradado_sin_nombre_99-8);}.cls-13{fill:url(#Degradado_sin_nombre_99-9);}</style><linearGradient id="Degradado_sin_nombre_47" x1="398.25" y1="244.75" x2="80.75" y2="-72.75" gradientUnits="userSpaceOnUse"><stop offset="0.04"/><stop offset="0.15" stop-color="#0072b0"/><stop offset="0.21"/><stop offset="0.3" stop-color="#000304"/><stop offset="0.38" stop-color="#000a10"/><stop offset="0.46" stop-color="#001723"/><stop offset="0.54" stop-color="#00293f"/><stop offset="0.61" stop-color="#004062"/><stop offset="0.69" stop-color="#005b8c"/><stop offset="0.7" stop-color="#005583"/><stop offset="0.73" stop-color="#003754"/><stop offset="0.77" stop-color="#001f30"/><stop offset="0.8" stop-color="#000e15"/><stop offset="0.83" stop-color="#000406"/><stop offset="0.85"/><stop offset="0.96" stop-color="#0072b0"/></linearGradient><linearGradient id="Degradado_sin_nombre_164" x1="401.08" y1="247.58" x2="77.92" y2="-75.58" gradientUnits="userSpaceOnUse"><stop offset="0.04"/><stop offset="0.15" stop-color="#0072b0"/><stop offset="0.21"/><stop offset="0.96" stop-color="#0072b0"/></linearGradient><radialGradient id="Degradado_sin_nombre_99" cx="92.88" cy="40.37" r="14.32" gradientUnits="userSpaceOnUse"><stop offset="0" stop-color="#fff"/><stop offset="0.2" stop-color="#edece8"/><stop offset="0.4" stop-color="#b5cce2"/><stop offset="0.8" stop-color="#0072b0"/></radialGradient><radialGradient id="Degradado_sin_nombre_99-2" cx="93.06" cy="63.19" r="25.36" xlink:href="#Degradado_sin_nombre_99"/><radialGradient id="Degradado_sin_nombre_99-3" cx="92.74" cy="127.45" r="14.5" xlink:href="#Degradado_sin_nombre_99"/><radialGradient id="Degradado_sin_nombre_99-4" cx="50.77" cy="113.52" r="12.64" xlink:href="#Degradado_sin_nombre_99"/><radialGradient id="Degradado_sin_nombre_99-5" cx="64.37" cy="108.43" r="27.47" xlink:href="#Degradado_sin_nombre_99"/><radialGradient id="Degradado_sin_nombre_99-6" cx="128.95" cy="65.64" r="14.95" xlink:href="#Degradado_sin_nombre_99"/><radialGradient id="Degradado_sin_nombre_99-7" cx="135.08" cy="113.25" r="12.59" xlink:href="#Degradado_sin_nombre_99"/><radialGradient id="Degradado_sin_nombre_99-8" cx="121.62" cy="108.5" r="27.47" xlink:href="#Degradado_sin_nombre_99"/><radialGradient id="Degradado_sin_nombre_99-9" cx="57.29" cy="65.46" r="14.94" xlink:href="#Degradado_sin_nombre_99"/></defs><title>Recurso 2</title><g id="Capa_2" data-name="Capa 2"><g id="Capa_1-2" data-name="Capa 1"><rect class="cls-1" x="4" y="4" width="471" height="164"/><path class="cls-2" d="M475,4V168H4V4H475m0-4H4A4,4,0,0,0,0,4V168a4,4,0,0,0,4,4H475a4,4,0,0,0,4-4V4a4,4,0,0,0-4-4Z"/><path class="cls-3" d="M353.87,127.91a10.13,10.13,0,0,1-9.3-5.51l-.05,0a1.34,1.34,0,0,1-.6-1.16,38.47,38.47,0,0,0,.07-4.31,29.35,29.35,0,0,1,.41-6.82,78.47,78.47,0,0,1,3.44-10.92c.37-1,.74-2,1.1-3a38.92,38.92,0,0,1,4-8.21,21.54,21.54,0,0,0,1.61-3.1A17,17,0,0,1,357.47,80a8.82,8.82,0,0,0,1.66-3.23,2.72,2.72,0,0,0,.15-.61h0l-.35-.05a1.52,1.52,0,0,1-1.1-.57,2.58,2.58,0,0,1-.23-2.1c0-.2.07-.4.09-.58a1,1,0,0,1,1-.93h3.76a92.08,92.08,0,0,1,10.56-13,13.84,13.84,0,0,1,8.37-4.66h.14a1,1,0,0,1,.71.3,2.08,2.08,0,0,1,.67,1.86A2.49,2.49,0,0,1,381.4,58c-4.06,1.81-6.76,5.15-9.18,8.43a22.9,22.9,0,0,1-2,2.25,14.48,14.48,0,0,0-2.44,3c1.2.09,2.52.13,4.13.13.89,0,1.78,0,2.67,0l2.7,0c1.35,0,2.46,0,3.5.08a1,1,0,0,1,.76,1.59l-.1.13c-1,1.43-1.3,1.81-2.69,1.82H365.84a11.72,11.72,0,0,0-3.42,4.46A27.68,27.68,0,0,1,361,82.26a87.55,87.55,0,0,0-6.76,12.67,93.42,93.42,0,0,0-5.29,14.89,24.74,24.74,0,0,0-.55,7c0,1.21,0,2.46,0,3.71a3.75,3.75,0,0,0,2,3.18l.52.32a3.67,3.67,0,0,0,1.68.77c.19,0,.5-.06.93-.55a1,1,0,0,1,.65-.33c4.29-.45,7.6-2.76,11.25-6.09a37.18,37.18,0,0,0,8.22-10.67,6.23,6.23,0,0,0,.81-3.14c-.12-2.2-.49-2.2-.81-2.2a6.68,6.68,0,0,0-2,.52,3.25,3.25,0,0,1-1.16.29,1.63,1.63,0,0,1-1.39-.78,2,2,0,0,1,.58-2.69l.1-.11a2,2,0,0,1,.68-.56,4.2,4.2,0,0,1,.78-.26c0-.27,0-.55,0-.83,0-1.23,0-2.5,0-3.74a3.55,3.55,0,0,1,.2-1.41,9.78,9.78,0,0,1-.74.68,7.2,7.2,0,0,1-1.13.71,4.45,4.45,0,0,0-.79.47,10.84,10.84,0,0,0-1.57,1.56,17.05,17.05,0,0,1-7.6,5.3.86.86,0,0,1-.32,0,1,1,0,0,1-.71-.3c-2.79-2.84-3-4.45-1-8.63s3.95-7.94,7-11.06a1,1,0,0,0,.14-.41,2.37,2.37,0,0,1,.72-1.35,1,1,0,0,1,.57-.24l.37,0c.4,0,.8-.08,1.19-.08a4.36,4.36,0,0,1,1.54.26,1.11,1.11,0,0,1,.3.17,1.25,1.25,0,0,1,.16,1.82l-.06.1c-1.19,1.85-2.36,3.72-3.54,5.58s-2.19,3.49-3.3,5.22a8.42,8.42,0,0,0-1.44,3.83,33.82,33.82,0,0,0,7.26-6c2-2,3.94-4,5.84-5.85l2.38-2.38a1,1,0,0,1,.64-.29h.22a2.62,2.62,0,0,1,2,.89,1.07,1.07,0,0,0,.26.22,1,1,0,0,1,.66,1.3,50.47,50.47,0,0,1-2.94,6.3,51.17,51.17,0,0,0-2.6,5.47,4.61,4.61,0,0,0,.55,0h.14a5.77,5.77,0,0,0,.53-.94c2-3.92,9.94-11.38,14.18-13.29a9.86,9.86,0,0,1,4.09-.69,13.13,13.13,0,0,0,1.69-.1l1.84-2.92-.23-.14c-1.09-.83-2.52-2.12-2.42-3.79s1.7-2.78,2.89-3.46c.26-.15.52-.33.78-.51a4.82,4.82,0,0,1,2.6-1.14h.26c1.42,0,2.15-1,3-2.31A85.07,85.07,0,0,1,419,49.92,38.73,38.73,0,0,1,434,41.59a14.94,14.94,0,0,1,4.52-.61,40.76,40.76,0,0,1,5,.39A14.51,14.51,0,0,1,450.18,44c2.19,1.6,4.73,3.92,4.9,7.66a2,2,0,0,0,.3.75,3.12,3.12,0,0,1,.27,2.94,22.73,22.73,0,0,0-.89,2.41,12.66,12.66,0,0,1-3,5.6,33.8,33.8,0,0,1-10.49,6.6c-2.28,1-4.62,1.82-6.89,2.63-2.08.74-4.24,1.51-6.3,2.38a4.88,4.88,0,0,1-1.95.28c-.92,0-1.24,0-1.51.49a1,1,0,0,1-.77.47,67.28,67.28,0,0,0-7.26,1.13l-2,.38a15.79,15.79,0,0,1-2.92.23c-.75,0-1.51,0-2.28-.06q-.79,0-1.59-.06l-.15.28c-.86,1.66-1.93,3.73-4.61,3.73a6.15,6.15,0,0,1-.93-.08,1,1,0,0,1-.55-.28,2,2,0,0,1-.27-.34l-.35.57c-.83,1.38-1.62,2.67-2.34,4a52.23,52.23,0,0,0-3,7.21l-.45,1.25a4.63,4.63,0,0,0,.46,4.68,1,1,0,0,1,0,1.28,2.37,2.37,0,0,1-2,.93h-.45a.86.86,0,0,1-.41.1,1,1,0,0,1-.79-.43c-1.89-2.62-1.91-3.46.05-9.82l-.52.52a65.12,65.12,0,0,1-6.9,6.18A16.28,16.28,0,0,1,382,99.05a19.29,19.29,0,0,0-1.75,1,3.07,3.07,0,0,1-1.63.43A3.67,3.67,0,0,1,377,100a3.07,3.07,0,0,0,.24.29,6.43,6.43,0,0,1,.94,1.33,5.81,5.81,0,0,1,.6,3.58,15.55,15.55,0,0,1-.89,3c-.11.3-.22.6-.32.9a7.21,7.21,0,0,1-.35.82c-2.36,4.3-11.64,14.35-19.1,17.2A11.94,11.94,0,0,1,353.87,127.91Zm38.64-43.2a3.68,3.68,0,0,0-2.4.81A62.13,62.13,0,0,0,382.69,93c-.32.37-.88,1-.83,1.53,0,0,0,.07,0,.1a62.09,62.09,0,0,0,8.91-7.94c.66-.67,1.32-1.34,2-2Zm12-9.87a5.08,5.08,0,0,0,1,.1,11.75,11.75,0,0,0,2.72-.44,13.28,13.28,0,0,1,3.12-.48,6.28,6.28,0,0,1,.75,0,5.74,5.74,0,0,0,.71,0,15.18,15.18,0,0,0,3.13-.46,16.06,16.06,0,0,1,3.51-.51c.33,0,.63,0,.94.05l3.05-1a137.06,137.06,0,0,0,13.4-4.87A49.87,49.87,0,0,0,442.76,64l.74-.46c3-1.87,6.06-4,7.33-7.72,1.08-3.15.71-5.52-1.15-7.46-2.23-2.3-5.08-3.18-8.57-4.08a5.21,5.21,0,0,0-1.3-.17,11.32,11.32,0,0,0-2.13.28c-.42.08-.85.17-1.29.23-5.58.79-9.86,4.07-13,6.84A82.82,82.82,0,0,0,412.1,63.3a130,130,0,0,0-7.73,11.51ZM400,73.78l.26,0c.17,0,.35-.23.59-.73A3.26,3.26,0,0,0,400,73.78Z"/><path class="cls-4" d="M438.53,42a39.64,39.64,0,0,1,4.89.38,13.61,13.61,0,0,1,6.17,2.4c2.24,1.64,4.34,3.71,4.49,6.9.06,1.09,1.28,1.86.66,3.22-1.18,2.6-1.46,5.57-3.7,7.71A33.29,33.29,0,0,1,440.84,69c-4.34,1.87-8.85,3.17-13.17,5-1.31.56-3-.35-3.93,1.18a93,93,0,0,0-9.38,1.52,15.59,15.59,0,0,1-2.74.21c-1.48,0-3-.13-4.47-.13-1,1.82-1.73,4-4.16,4a4.32,4.32,0,0,1-.77-.07c-.73-.74,0-1.61-.49-2.42.94,0,1.32-.61,1.71-1.3a2.21,2.21,0,0,0-.84-.21c-.74,0-.78.75-.87,1.51-1.39,2.42-2.83,4.61-4.06,6.91a63.43,63.43,0,0,0-3.5,8.59,5.54,5.54,0,0,0,.64,5.67,1.4,1.4,0,0,1-1.21.56h-.35a1,1,0,0,0-.49.09c-1.84-2.56-1.72-2.86,1.08-11.75a.69.69,0,0,0-.45-.25c-.33,0-.49.49-.68.67a89.08,89.08,0,0,1-8.72,8c-1.34,1-2.89,1.51-4.27,2.39a2.09,2.09,0,0,1-1.09.27,2.7,2.7,0,0,1-1.85-.73.38.38,0,0,0-.25-.13c-.33,0-.53.7-1.08.84.32,1.09,1.33,1.73,1.79,2.68a4.77,4.77,0,0,1,.51,3,22.23,22.23,0,0,1-1.17,3.72,4.66,4.66,0,0,1-.28.66c-2.43,4.42-11.55,14.06-18.58,16.74a10.84,10.84,0,0,1-3.85.72,9.16,9.16,0,0,1-8.44-5c-.11-.22-.53-.4-.51-.58.32-3.65-.33-7.29.46-11,1-4.79,2.88-9.27,4.5-13.81a37.43,37.43,0,0,1,3.89-8c1.66-2.52,2.3-5.56,4.43-7.83a9.62,9.62,0,0,0,1.88-3.6c.21-.66.6-1.82-1.08-2-.88-.07-.39-1.3-.33-2.18H363a90.49,90.49,0,0,1,10.73-13.36,13,13,0,0,1,7.79-4.36c.9.92.12,1.62-.51,1.9-4.18,1.87-6.94,5.19-9.57,8.75-1.38,1.87-3.37,3.27-4.52,5.36a2.32,2.32,0,0,0-.33,1.38,53,53,0,0,0,5.34.23c1.79,0,3.58-.05,5.37-.05,1.15,0,2.3,0,3.45.08-1.08,1.49-1.08,1.53-2,1.54h-13.2c-2.8,1.73-3.69,4.84-5.39,7.34a88.41,88.41,0,0,0-6.84,12.81,96.09,96.09,0,0,0-5.35,15c-1,3.72-.4,7.31-.61,10.94a4.7,4.7,0,0,0,2.52,4.1,5.91,5.91,0,0,0,2.71,1.23,2.25,2.25,0,0,0,1.69-.89c4.8-.5,8.41-3.24,11.81-6.35a37.8,37.8,0,0,0,8.44-11,7.22,7.22,0,0,0,.92-3.65c-.12-2.18-.52-3.14-1.81-3.14a7.4,7.4,0,0,0-2.39.58,2.64,2.64,0,0,1-.81.23.63.63,0,0,1-.55-.33,1,1,0,0,1,.36-1.36c.21-.16.35-.44.58-.54a9.14,9.14,0,0,1,1.36-.38c0-1.75.1-3.59,0-5.42s1.73-2.78,1.63-4.68c-1,0-1.27.86-1.79,1.28-.71.6-1.29,1.37-2,2s-1.33.71-1.91,1.16a12.49,12.49,0,0,0-1.71,1.7,16.1,16.1,0,0,1-7.16,5c-2.44-2.48-2.62-3.64-.77-7.5s3.79-7.69,6.82-10.8c.52-.53.29-1.25.8-1.69.5,0,1-.11,1.48-.11a3.45,3.45,0,0,1,1.19.19c.26.23.08.34-.1.62-2.3,3.59-4.54,7.21-6.83,10.81a8.9,8.9,0,0,0-1.59,6c3.6-1.64,6.31-4.23,9-6.92s5.62-5.62,8.22-8.22h.15c1.1,0,1.23.87,1.94,1.07-1.62,4.5-4.46,8.37-6,12.88a11.91,11.91,0,0,0,1.9.28c.78,0,1-.38,1.56-1.49,1.83-3.61,9.55-11,13.7-12.84,2.08-.94,4.09-.38,6-.79l2.67-4.24c0-.41-.2-.48-.43-.48l-.37,0a.38.38,0,0,1-.26-.07c-2.82-2.14-2.71-3.82.36-5.58.95-.55,1.94-1.52,2.88-1.52h.26c2.07,0,3.07-1.53,3.86-2.77a85.49,85.49,0,0,1,14-16.23,37.8,37.8,0,0,1,14.67-8.11,14.25,14.25,0,0,1,4.22-.56m-35,33.85c.2,0,.4,0,.6,0l.22,0a5.58,5.58,0,0,0,1.2.13c2,0,3.89-.92,5.84-.92.22,0,.43,0,.64,0a7.67,7.67,0,0,0,.82,0c2.27,0,4.41-1,6.64-1a6,6,0,0,1,1,.08c5.64-1.87,11.32-3.55,16.77-6A57.81,57.81,0,0,0,444,64.37c3.19-2,6.37-4.24,7.75-8.25,1.12-3.26.92-6.09-1.38-8.47-2.49-2.57-5.68-3.49-9-4.36a6.22,6.22,0,0,0-1.55-.2,25.68,25.68,0,0,0-3.56.52c-5.4.77-9.68,3.69-13.48,7.08a82.59,82.59,0,0,0-11.47,12,128.2,128.2,0,0,0-8.5,12.82.79.79,0,0,0,.68.31m-.58-5.11C401,72,399,72.41,398.65,74.49a7.63,7.63,0,0,0,1.64.31c1.07,0,1.4-.89,2.61-4.08M381.71,96c5-3.24,8.78-7.71,13.08-11.83a6.43,6.43,0,0,0-2.28-.44,4.64,4.64,0,0,0-3,1.05,61.85,61.85,0,0,0-7.55,7.63c-.53.63-2,2.25-.21,3.59m56.82-56a15.93,15.93,0,0,0-4.82.65,40,40,0,0,0-15.43,8.55A86,86,0,0,0,404,65.8c-.81,1.26-1.29,1.85-2.18,1.85h-.26A5.6,5.6,0,0,0,398.35,69a7.53,7.53,0,0,1-.71.46c-.8.46-3.23,1.86-3.38,4.26-.13,2,1.36,3.48,2.3,4.26l-1.09,1.72-1.12,0a10.73,10.73,0,0,0-4.48.78c-2.92,1.32-7.37,5-10.7,8.55a40.67,40.67,0,0,0,2.19-4.88,2,2,0,0,0-1.11-2.53l-.05-.05a3.59,3.59,0,0,0-2.66-1.17h-.28A2,2,0,0,0,376,81l-2.39,2.37c-1.9,1.9-3.88,3.87-5.84,5.86a42.84,42.84,0,0,1-4.82,4.36c.16-.3.34-.62.55-1,1.11-1.73,2.21-3.48,3.31-5.22s2.34-3.73,3.53-5.58l0,0a2.23,2.23,0,0,0-.32-3.16,1.85,1.85,0,0,0-.6-.36,5.39,5.39,0,0,0-1.89-.32c-.46,0-.88,0-1.29.08l-.36,0a2,2,0,0,0-1.13.47,3.29,3.29,0,0,0-1,1.88l0,.07c-.49.51-1,1-1.4,1.59.36-.6.68-1.2,1-1.78a11.52,11.52,0,0,1,2.86-3.93h12.6c1.89,0,2.43-.75,3.49-2.23l.1-.14a2,2,0,0,0-1.51-3.17c-1.06,0-2.19-.08-3.56-.08l-2.71,0c-.89,0-1.77,0-2.66,0s-1.57,0-2.27,0c.4-.46.84-.91,1.29-1.38A22,22,0,0,0,373,67c2.33-3.16,4.94-6.4,8.78-8.11a3.36,3.36,0,0,0,2.05-2.39,3.05,3.05,0,0,0-.94-2.74,2,2,0,0,0-1.42-.6l-.28,0a14.87,14.87,0,0,0-9,5A94.23,94.23,0,0,0,361.9,70.89h-3.23a2,2,0,0,0-2,1.86c0,.11,0,.3-.07.48a3.49,3.49,0,0,0,.42,2.88,2.35,2.35,0,0,0,1,.76,7,7,0,0,1-1.29,2.4,18,18,0,0,0-3.11,5.14,23.44,23.44,0,0,1-1.53,3A39.58,39.58,0,0,0,348,95.8c-.35,1-.72,2-1.09,3a79.63,79.63,0,0,0-3.48,11.06,30.4,30.4,0,0,0-.43,7,39.08,39.08,0,0,1-.06,4.21,2.24,2.24,0,0,0,.84,1.92,11.15,11.15,0,0,0,10.1,5.87,12.81,12.81,0,0,0,4.57-.85c7.79-3,17.13-13.12,19.61-17.65a6.94,6.94,0,0,0,.42-1c.1-.29.21-.59.32-.88a17.07,17.07,0,0,0,.94-3.18,6.75,6.75,0,0,0-.6-4,3.93,3.93,0,0,0,1.66-.55c.51-.32,1.07-.6,1.67-.9a17.4,17.4,0,0,0,2.72-1.57A51.94,51.94,0,0,0,390,94.25c-.86,3.47-.52,4.72,1.15,7a2,2,0,0,0,2.21.74h.25a3.36,3.36,0,0,0,2.75-1.29,2,2,0,0,0,0-2.58c-.75-.87-.85-2.11-.28-3.68l.45-1.25a50.61,50.61,0,0,1,2.94-7.08c.63-1.19,1.33-2.35,2.06-3.56a2.62,2.62,0,0,0,.4.11,6.87,6.87,0,0,0,1.09.09c3.11,0,4.47-2.3,5.35-4l1,0c.76,0,1.54.06,2.32.06a17.83,17.83,0,0,0,3.1-.24l2-.39a66,66,0,0,1,7.15-1.11,2,2,0,0,0,1.53-.93,6.59,6.59,0,0,1,.67,0,5.77,5.77,0,0,0,2.34-.36c2-.86,4.18-1.62,6.24-2.36,2.29-.81,4.65-1.65,7-2.65A34.88,34.88,0,0,0,452.42,64a13.61,13.61,0,0,0,3.29-6,23.78,23.78,0,0,1,.85-2.31,4.1,4.1,0,0,0-.29-3.81c-.07-.13-.16-.3-.19-.38-.22-4.14-2.95-6.65-5.31-8.38a15.57,15.57,0,0,0-7.11-2.77,42.33,42.33,0,0,0-5.13-.39ZM406.09,73.9c2.07-3.37,4.35-6.72,6.81-10a82.43,82.43,0,0,1,11.2-11.72c3-2.67,7.11-5.83,12.43-6.59.48-.07.92-.15,1.34-.24a10.18,10.18,0,0,1,1.94-.26,4.15,4.15,0,0,1,1.05.14c3.34.86,6.05,1.69,8.1,3.81,1.62,1.68,1.9,3.6.92,6.43-1.16,3.41-3.93,5.35-6.91,7.2l-.73.46a47.57,47.57,0,0,1-5.82,3.27,133.92,133.92,0,0,1-13.3,4.84l-2.86.93a7.27,7.27,0,0,0-.82,0,17,17,0,0,0-3.73.53,13.61,13.61,0,0,1-2.91.44,5.68,5.68,0,0,1-.59,0,6.17,6.17,0,0,0-.87,0,14.23,14.23,0,0,0-3.35.51,14.73,14.73,0,0,1-1.9.37Zm-46.88,28.15a2,2,0,0,0,.64-.1,18.07,18.07,0,0,0,8-5.6,9.91,9.91,0,0,1,1.43-1.42,4.5,4.5,0,0,1,.63-.38l.25-.13c0,1,0,2,0,3v.1l-.21.09a3,3,0,0,0-1,.82l0,0a3,3,0,0,0-.72,4,2.63,2.63,0,0,0,2.22,1.23,3.87,3.87,0,0,0,1.44-.33l.07,0a8,8,0,0,1,1.37-.42,7.9,7.9,0,0,1,.13,1.21,5.19,5.19,0,0,1-.7,2.64,36.17,36.17,0,0,1-8,10.38c-3.5,3.19-6.66,5.41-10.67,5.83a2,2,0,0,0-1.29.67,1,1,0,0,1-.23.2,5.1,5.1,0,0,1-1.1-.6l-.54-.34a2.81,2.81,0,0,1-1.55-2.26c.07-1.29.05-2.56,0-3.78a24,24,0,0,1,.51-6.75,93.64,93.64,0,0,1,5.24-14.75l.36-.79c-.76,2.73-.06,4.51,2.29,6.91a2,2,0,0,0,1.42.59Z"/><path class="cls-3" d="M273.86,126.75a14.75,14.75,0,0,1-4.55-.75,8.63,8.63,0,0,1-4.89-4.53,5.93,5.93,0,0,1-.65-3c0-2.08,0-4.17,0-6.23v-1.54c-3-.78-3.94-2-4-5-.14-4.69,1.28-9.09,4.48-13.85.63-.92,1.21-1.9,1.77-2.87q-3.75,3.66-7.48,7.34c-1.33,1.31-2.83,2.52-4.83,2.52a5.76,5.76,0,0,1-.7-.05h0c-.11,0-.28.14-.43.27a2.36,2.36,0,0,1-1.53.69,3,3,0,0,1-2,.86,4.56,4.56,0,0,1-3-1.5,4.49,4.49,0,0,1-1.66-3.12,2.93,2.93,0,0,1,.85-2,32.51,32.51,0,0,1,3.38-8.33c.67-1.3,1.37-2.65,1.95-4a1,1,0,0,1,.91-.61h1.7a1,1,0,0,1,.81.42l.09.11a2.17,2.17,0,0,1,.47.78,5.22,5.22,0,0,1-.79,4.06,5.54,5.54,0,0,0-.63,1.56A10.21,10.21,0,0,1,250,94c-1,1-1.23,1.46-1.17,2a4.26,4.26,0,0,0,.5,0,4.19,4.19,0,0,0,3.93-2.4,45.1,45.1,0,0,1,3.89-6.06c1-1.38,2-2.81,2.89-4.28a3,3,0,0,1,2.64-1.52,4.76,4.76,0,0,1,1.55.28,1,1,0,0,1,.64.7,1,1,0,0,1-.23.92,22.3,22.3,0,0,0-2.09,2.92c-.28.45-.56.89-.86,1.33.89-.79,1.84-1.53,2.76-2.25.47-.36.93-.72,1.39-1.1a17.65,17.65,0,0,1,5.28-2.7,1.87,1.87,0,0,1,.59-.1,4.85,4.85,0,0,1,.7.08l.4.07a1,1,0,0,1,.91,1c0,2.08-1.12,3.49-2.12,4.73a14.22,14.22,0,0,0-1,1.28,71.31,71.31,0,0,0-5.55,11,4.15,4.15,0,0,0-.17,1.55,4.89,4.89,0,0,1-.6,2.87c.07.14.14.29.2.44a4.23,4.23,0,0,0,.57,1,2.12,2.12,0,0,0,.32-.62,93.24,93.24,0,0,1,4.92-12.76l1-2c1.23-2.52,2.5-5.13,3.85-7.66.58-1.09,1.25-2.14,1.89-3.16s1.21-1.91,1.74-2.88a4,4,0,0,0,.37-.84,1.74,1.74,0,0,0-.57-.16c-.92-.15-1.31-.85-1.17-2.09a2.24,2.24,0,0,0,0-.41,1,1,0,0,1,.41-1.09L278,72a1.67,1.67,0,0,1,1.05-.49c3.74-.09,3.74-.09,5.72-3a65.28,65.28,0,0,1,10.73-12,9.82,9.82,0,0,1,4.25-1.92c.6-.16,1.22-.33,1.86-.55a1,1,0,0,1,.33-.06,1,1,0,0,1,.63.23,1,1,0,0,1,.35.92c-.4,2.7-2.27,3.52-3.77,4.18a4.46,4.46,0,0,0-2,1.28A31.05,31.05,0,0,1,294,64.2c-.78.8-1.57,1.62-2.27,2.48l-1,1.2A43.73,43.73,0,0,0,288,71.43h13.14a1,1,0,0,1,.9,1.43,3.35,3.35,0,0,1-3.34,2.25c-2.09,0-4.11,0-6.15,0h-7.07a110,110,0,0,0-15.7,30.5c3.75-2.3,6.62-4.48,8.47-7.73a3.78,3.78,0,0,0-.56-.57c-.32-.27-1.05-.92-.57-1.74a3.77,3.77,0,0,0,.33-2,6.41,6.41,0,0,1,.26-2.16,26.17,26.17,0,0,1,11.21-14.18,7.81,7.81,0,0,1,1.55-.68,7,7,0,0,1,2.25-.41,4.86,4.86,0,0,1,2.32.57,2.93,2.93,0,0,1,1.4,3.1,5.23,5.23,0,0,0,0,.56c0,.28,0,.56,0,.85v.41a1,1,0,0,1-.4.8,8.23,8.23,0,0,0-1.1,1c-.2.21-.41.44-.64.66h.42c1.59,0,3.17-.57,7.11-2.31a.93.93,0,0,1,.4-.09,1,1,0,0,1,.68.27l1.13,1a1,1,0,0,1,.28,1,4.51,4.51,0,0,1-.17.52l.28-.23,1.32-1.08a6.71,6.71,0,0,1,4.91-1.48l1,0h0a1,1,0,0,1,.76.34,1,1,0,0,1,.23.84l0,.11c-.22,1.19-.52,2.82-2.11,2.82a2.66,2.66,0,0,1-1.1-.26l-1.34.74a24.85,24.85,0,0,0-4.7,3.06,35.31,35.31,0,0,0-6.66,8,3.6,3.6,0,0,1-.73.83,5.65,5.65,0,0,1,1.59,1.5,6.81,6.81,0,0,1,.91,6.2,20.32,20.32,0,0,1-6.92,9.82,20.86,20.86,0,0,0-3.36,3.36c-2.36,2.91-5.67,5.1-10.43,6.9A10.7,10.7,0,0,1,273.86,126.75ZM268,113.35c0,2.06,0,4.1,0,6.15a4.42,4.42,0,0,0,3,4.43,5.52,5.52,0,0,1,.64.34,2,2,0,0,0,.83.33c2.47-.33,9.17-3.47,11.19-5.44l1.53-1.45a32.48,32.48,0,0,0,6.18-7.09c.23-.39.46-.79.7-1.18,1.21-2,2.35-3.89,2.1-6.23-.14-1.3-.26-1.41-1.85-1.62a2.69,2.69,0,0,0-.41.29,2.38,2.38,0,0,1-1.53.69,2.12,2.12,0,0,1-1.49-.69,1,1,0,0,1-.31-.8v-.17a1.7,1.7,0,0,1,.43-1.47c3.08-2.76,4.83-6.32,6.7-10.1l.48-1a2.18,2.18,0,0,0,.33-1.12h-5.74c-1.72,0-3.44,0-5.16,0h0a1.83,1.83,0,0,0-1.72,1c-2,2.75-2.68,5-2.14,7.44a3.64,3.64,0,0,1,1,.59,2,2,0,0,0,.43.28,1.8,1.8,0,0,1,.25-.21,2.74,2.74,0,0,1,1.44-.69,10.23,10.23,0,0,0,2.66-.85l.95-.38a4.15,4.15,0,0,1,1.48-.32,2.88,2.88,0,0,1,1.71.57,1,1,0,0,1,.4.67,1,1,0,0,1-.19.75,7.36,7.36,0,0,1-3.2,2.14,8.13,8.13,0,0,0-1.74.9,5.78,5.78,0,0,1-3.35,1.16,4,4,0,0,1-1.68-.35,2.21,2.21,0,0,0-.76-.24h0s-.14.11-.43.65a20,20,0,0,1-7,7.62,20.27,20.27,0,0,1-2.39,1.26,15,15,0,0,0-3.32,1.93Zm24-32.73a13.59,13.59,0,0,0-3.23,2.49c.25-.1.53-.21.89-.37a4.33,4.33,0,0,0,2.39-2Z"/><path class="cls-4" d="M301.94,54.92h0m0,0c-.54,3.57-4.17,3-5.6,5s-3.67,4-5.4,6.09a45.54,45.54,0,0,0-4.8,6.38h14.95a2.4,2.4,0,0,1-2.44,1.68h-.07c-2,0-4.05,0-6.11,0h-7.54a111.34,111.34,0,0,0-17,33.72c4.8-2.82,9-5.39,11.32-9.86-.14-1-1.51-1.63-1.36-1.89.83-1.4.21-2.94.67-4.32a25.24,25.24,0,0,1,10.8-13.66,6.85,6.85,0,0,1,1.35-.57,5.78,5.78,0,0,1,1.92-.36,3.89,3.89,0,0,1,1.85.45c1.2.65.83,1.8.86,2.81,0,.39,0,.79,0,1.23-1.31,1-2.11,2.63-3.93,3a13.21,13.21,0,0,0,3.21.5c1.81,0,3.59-.67,7.51-2.4l1.13,1c-.4,1.46-1.59,2.44-2.28,3.89v-.18a3.79,3.79,0,0,0-.62.23c-.21.13-.16.37.15.47h0c.12,0,.3-.24.45-.52v0h0a3.43,3.43,0,0,0,1.81-.7c1.11-1,2.38-2,3.51-3,1.71-1.47,3.26-1.18,5.27-1.26-.21,1.17-.36,2.11-1.14,2.11a2.39,2.39,0,0,1-1.13-.4c-2.27,1.33-4.7,2.42-6.68,4.19A36.4,36.4,0,0,0,295.81,97a9.93,9.93,0,0,1-1.44,1.45,10.58,10.58,0,0,1,2.32,1.94,5.82,5.82,0,0,1,.8,5.33,19.24,19.24,0,0,1-6.58,9.36,21.31,21.31,0,0,0-3.52,3.52c-2.65,3.25-6.3,5.19-10,6.6a10,10,0,0,1-3.52.6,13.54,13.54,0,0,1-4.23-.7,7.8,7.8,0,0,1-4.33-4,5,5,0,0,1-.53-2.55c0-2.87,0-5.74,0-8.56-3.27-.69-3.95-1.49-4-4.27-.15-4.93,1.6-9.22,4.31-13.26,1.34-2,2.46-4.12,3.67-6.18a1.59,1.59,0,0,0-.75-.23c-.63,0-.95.59-1.34,1-3,2.87-5.89,5.76-8.83,8.65-1.17,1.16-2.45,2.23-4.11,2.23a5.46,5.46,0,0,1-.57,0l-.17,0c-.85,0-1.2,1-1.94,1a.92.92,0,0,1-.37-.08,2.06,2.06,0,0,1-1.66.94,3.78,3.78,0,0,1-2.34-1.22c-.8-.78-2.26-2.37-.58-3.92.86-4.53,3.56-8.29,5.33-12.42h1.69a2.6,2.6,0,0,1,.41.59c.59,2-1.21,3.53-1.45,5.2a9.17,9.17,0,0,1-2.67,5.47c-1.66,1.55-1.65,2.37-1.31,3.63a7,7,0,0,0,1.34.13,5.21,5.21,0,0,0,4.82-3c1.85-3.71,4.66-6.75,6.74-10.28a2,2,0,0,1,1.78-1,3.62,3.62,0,0,1,1.22.23c-1.85,2.07-2.84,4.61-4.79,6.54-.18.18-.06.65,0,1.16a3,3,0,0,0-.62.22c-.21.13-.16.37.15.47h0c.12,0,.3-.24.45-.52v0h0c.5-.28,1.05.06,1.5-.45a46.71,46.71,0,0,1,5.89-5.07,16.3,16.3,0,0,1,5-2.54.75.75,0,0,1,.26,0c.28,0,.62.11,1,.14,0,2.4-1.85,3.79-2.92,5.47a73.28,73.28,0,0,0-5.63,11.15c-.63,1.52.33,3.36-1.06,4.71.64.91.72,2.17,2.11,2.93a4.38,4.38,0,0,0,1.14-1.7,91.87,91.87,0,0,1,4.87-12.62c1.57-3.22,3.11-6.47,4.8-9.63,1.1-2.06,2.51-4,3.63-6,.51-1,1.1-2.14-.92-2.47-.69-.11-.16-1.18-.33-1.77.22-.15.42-.41.63-.42,4.25-.1,4.26-.09,6.52-3.46a64.56,64.56,0,0,1,10.58-11.87c1.45-1.3,3.54-1.5,5.77-2.27M287.58,84.36a6,6,0,0,0,2.53-.7,4.76,4.76,0,0,0,3.06-3l-.6-1.39c-2.76,1.09-4.42,3.14-6.28,4.95a8.56,8.56,0,0,0,1.29.12m-6.65,12.19h.15c.77,0,1.19.76,1.87.93a.67.67,0,0,0,.24,0c.68,0,1-.81,1.82-.9a17,17,0,0,0,3.85-1.3,3.07,3.07,0,0,1,1.12-.25,1.82,1.82,0,0,1,1.12.38c-1.22,1.59-3.26,1.75-4.74,2.84a4.74,4.74,0,0,1-2.75,1,3,3,0,0,1-1.27-.26,3.08,3.08,0,0,0-1.17-.33c-.57,0-.91.39-1.33,1.17a19.07,19.07,0,0,1-6.65,7.26c-1.9,1.22-4.17,1.75-6.17,3.57,0,3,0,5.91,0,8.84a5.43,5.43,0,0,0,3.55,5.35,4.73,4.73,0,0,0,1.87.75l.23,0c2.61-.35,9.53-3.63,11.66-5.7,2.82-2.74,5.92-5.33,7.88-8.76,1.4-2.45,3.27-4.84,2.92-8-.2-1.91-.82-2.26-2.71-2.51h-.13c-.8,0-1.25,1-1.94,1a1.18,1.18,0,0,1-.8-.41c0-.28-.09-.8.1-1,3.49-3.13,5.37-7.28,7.4-11.37a2.38,2.38,0,0,0,.13-2.56h-6.44c-1.71,0-3.42,0-5.13,0h-.09a2.81,2.81,0,0,0-2.47,1.39c-2,2.7-3.15,5.54-2.13,8.94m20.16-24.12h0m10.52,10.36h0M301,87.7h0m-41.91,3v.17h0v-.17h0m42.83-37.77h-.1a2,2,0,0,0-.6.12c-.58.2-1.18.36-1.76.52a10.81,10.81,0,0,0-4.65,2.13,66.16,66.16,0,0,0-10.89,12.24,10,10,0,0,1-1.8,2.31,10.58,10.58,0,0,1-3.08.27,2.65,2.65,0,0,0-1.71.73l-.07.06a2,2,0,0,0-.81,2,1.37,1.37,0,0,1,0,.19c-.21,1.88.64,2.66,1.34,3-.48.85-1,1.69-1.56,2.57s-1.19,1.87-1.74,2.87a2,2,0,0,0-1.55-1l-.33,0a4.86,4.86,0,0,0-.87-.1,2.88,2.88,0,0,0-.93.16,20.16,20.16,0,0,0-4.91,2.37,2,2,0,0,0-1.32-2.19,5.62,5.62,0,0,0-1.87-.34,3.93,3.93,0,0,0-3.5,2c-.85,1.43-1.81,2.78-2.84,4.2a46.21,46.21,0,0,0-4,6.2,3.2,3.2,0,0,1-1.8,1.66l.11-.11A11.16,11.16,0,0,0,254,88.08a4.85,4.85,0,0,1,.53-1.25,6.17,6.17,0,0,0,.86-4.8,3.14,3.14,0,0,0-.67-1.15l-.05-.06a2,2,0,0,0-1.61-.82h-1.69a2,2,0,0,0-1.84,1.21c-.56,1.31-1.22,2.58-1.92,3.93a34.21,34.21,0,0,0-3.41,8.33,3.86,3.86,0,0,0-.93,2.45,5.58,5.58,0,0,0,2,3.86,5.46,5.46,0,0,0,3.72,1.78,3.86,3.86,0,0,0,2.45-.89,3.6,3.6,0,0,0,1.77-.9h0l.49,0c2.35,0,4-1.35,5.52-2.81l2-1.94a22.27,22.27,0,0,0-2.44,10.64c.1,3.22,1.16,4.82,4,5.75v.8c0,2,0,4.16,0,6.25a6.92,6.92,0,0,0,.77,3.47,9.7,9.7,0,0,0,5.46,5,15.76,15.76,0,0,0,4.86.8,11.82,11.82,0,0,0,4.23-.73c4.92-1.87,8.37-4.16,10.85-7.21a20.07,20.07,0,0,1,3.19-3.2,21.19,21.19,0,0,0,7.25-10.29,7.72,7.72,0,0,0-1-7.06,5.1,5.1,0,0,0-1-1.09,1.74,1.74,0,0,0,.11-.18A34.83,34.83,0,0,1,304,90.18a24,24,0,0,1,4.51-2.92l.95-.52a3.27,3.27,0,0,0,1,.16c2.42,0,2.87-2.46,3.09-3.64h0a1.76,1.76,0,0,0,.06-.46,2,2,0,0,0-2-2h-.1l-.93,0A7.65,7.65,0,0,0,305,82.53l-.12.1a2.18,2.18,0,0,0-.25-.28l-.57-.53-.56-.52a2,2,0,0,0-1.36-.54,2.1,2.1,0,0,0-.81.17c-1.89.84-3.23,1.4-4.27,1.75a2,2,0,0,0,.29-1v-.4c0-.31,0-.6,0-.9a3.73,3.73,0,0,1,0-.47,4,4,0,0,0-1.52-3.78l2.69,0h.09a4.31,4.31,0,0,0,4.2-2.73,2,2,0,0,0-1.76-2.95H289.92c.51-.64,1-1.27,1.57-1.91.33-.4.67-.8,1-1.21.68-.82,1.42-1.6,2.22-2.42a30.2,30.2,0,0,0,3.27-3.8,4.2,4.2,0,0,1,1.57-.93c1.52-.66,3.82-1.67,4.34-4.82a1.86,1.86,0,0,0,.05-.42,2,2,0,0,0-2-2Zm0,4ZM286,76.09h3a5.18,5.18,0,0,0-.57.31,28,28,0,0,0-6,5q1.71-2.66,3.58-5.25Zm-3.33,18.84c-.27-1.94.37-3.84,2.05-6.14.42-.57.54-.57.86-.57,1.55,0,3.19,0,5.22,0h4.36l-.32.65c-.84,1.69-1.65,3.34-2.57,4.88a3.83,3.83,0,0,0-2.24-.72,5.1,5.1,0,0,0-1.84.38l-1,.4a9.88,9.88,0,0,1-2.39.78,3.42,3.42,0,0,0-1.62.65,4.89,4.89,0,0,0-.53-.34Zm-11,8.25a105.79,105.79,0,0,1,5-11.63,8.34,8.34,0,0,0-.18,2,3.1,3.1,0,0,1-.19,1.46c-.34.57-.68,1.7.73,3a18.65,18.65,0,0,1-5.32,5.17Zm12-1.93a6.67,6.67,0,0,0,3.94-1.36l.09-.06a3.44,3.44,0,0,0-.08,1.14v.1a2,2,0,0,0,.61,1.53,3.15,3.15,0,0,0,2.19,1,3.31,3.31,0,0,0,2.17-.92h0a3.28,3.28,0,0,1,.51.11,3.92,3.92,0,0,1,.1.57c.21,2-.79,3.67-2,5.6q-.37.6-.72,1.2a31,31,0,0,1-6,6.86c-.51.49-1,1-1.53,1.46-1.82,1.77-8.25,4.8-10.47,5.15l-.37-.19a6.75,6.75,0,0,0-.72-.38,3.45,3.45,0,0,1-2.36-3.53c0-2,0-4.08,0-6.13v-1.75a16.24,16.24,0,0,1,2.74-1.52,19,19,0,0,0,2.51-1.32,21,21,0,0,0,7.3-7.93,5.13,5.13,0,0,0,2,.41Z"/><path class="cls-3" d="M230.72,101c-.49,0-1,0-1.48-.06l-1.31,0c-2.17,0-4.11-3.42-4.3-5.63-.27-3.12.92-8.21,2-11.62.21-.67.46-1.33.7-2a.58.58,0,0,0,0-.14,6.16,6.16,0,0,0-1.68,2.24,4.75,4.75,0,0,1-1.53,1.77l-.09.08a30.93,30.93,0,0,0-4.24,4.64A35.89,35.89,0,0,1,215,94.69a11.45,11.45,0,0,0-3,3.89,3.35,3.35,0,0,1-3.39,2.42c-.36,0-.74,0-1.14-.07l-.79-.06a1,1,0,0,1-.8-.48,1,1,0,0,1,0-.93c.32-.7.6-1.4.87-2.06a19.86,19.86,0,0,1,2-4.08,71.31,71.31,0,0,0,6.07-11.19c1.22-2.61,2.49-5.3,3.95-7.86a10.13,10.13,0,0,0,.67-1.72,17.27,17.27,0,0,1,.61-1.63,8.51,8.51,0,0,0,.86-3.36c0-.21,0-.41.07-.62a5.13,5.13,0,0,0-.29-3.19,1.93,1.93,0,0,0-2.07-1.33h-.39a13.89,13.89,0,0,0-5.74,1.52c-6.69,3-11.39,6.07-15.24,9.83a7.61,7.61,0,0,0-1.13,1.56,8.18,8.18,0,0,1-1.73,2.19,2.92,2.92,0,0,0,0,.52,3,3,0,0,1-.45,1.65l.5.86h1.74a.94.94,0,0,1,.56.18,1.53,1.53,0,0,1,.76,1,1.35,1.35,0,0,1-.37,1.1,3.43,3.43,0,0,1-2.77,1.43,4,4,0,0,1-2.1-.63A5.71,5.71,0,0,1,190,80.13a4,4,0,0,1,.35-3c.34-.53.64-1.07,1-1.64a16.6,16.6,0,0,1,2.21-3.26,49,49,0,0,1,17.66-11.81,20.08,20.08,0,0,1,5.28-1.51,15.32,15.32,0,0,1,1.6-.11c2.48,0,3.76,1.21,6.42,3.93a1,1,0,0,1,.28.56c.65,4.47-.85,8.34-2.3,12.08-.27.68-.53,1.36-.78,2a78.47,78.47,0,0,1-3.41,7.93,8.58,8.58,0,0,1,1.06-1,33.74,33.74,0,0,0,4.22-4.66,35.68,35.68,0,0,1,4.53-5,2.44,2.44,0,0,0,.51-.87,3.51,3.51,0,0,1,1.81-2.07l.21-.06a3,3,0,0,1,.42,0,2.6,2.6,0,0,1,2.52,2.08l.06.48a5.3,5.3,0,0,1-.57,4A20.83,20.83,0,0,0,231.59,81c-.26.59-.53,1.18-.82,1.76a25.23,25.23,0,0,0-2.72,13.51,1.72,1.72,0,0,0,1.82,1.68,2.43,2.43,0,0,0,.94-.19c4.63-1.79,8-5.49,11.17-9.07l.1-.1c.48-.54.95-1.16,1.44-1.82.29-.38.58-.76.87-1.12l.45-.56a16.3,16.3,0,0,0,1.7-2.37l.88-1.62a30.08,30.08,0,0,0,3.22-7.2c.49-2,.86-4.42-.18-6.58a4.16,4.16,0,0,1-.31-1.67v-.22a1.64,1.64,0,0,1,.44-1.26,1.6,1.6,0,0,1,1.2-.49h.15a1.94,1.94,0,0,1,1.41.63c1.23,1.6,1.39,6.42,1.31,8a17.93,17.93,0,0,1-.36,2.77l.2-.09a.73.73,0,0,1,.24-.07,2.28,2.28,0,0,1,.36,0,2.5,2.5,0,0,1,2,1.12,3.06,3.06,0,0,0,.33.36,1,1,0,0,1,.36,1,5.19,5.19,0,0,1-4.39,4.42,3.15,3.15,0,0,1-.59.07,1.59,1.59,0,0,1-1.23-.5,38.48,38.48,0,0,1-5.17,7.77c-.45.51-.88,1-1.32,1.56a39.59,39.59,0,0,1-4,4.33,25,25,0,0,1-2.53,1.91,18.13,18.13,0,0,0-2.85,2.25A6.4,6.4,0,0,1,230.72,101Z"/><path class="cls-4" d="M218,59.79c2,0,3,.83,5.71,3.63.73,5-1.41,9.24-3,13.64A73,73,0,0,1,215,89.16c-.18.3,0,.79,0,1.19H215c-.52,0-.77.27-.75,1h0c-.06,0-.22-.06-.19-.12l.21-.07c-.14,0-.2,0-.21.07a1.67,1.67,0,0,0-.41.16c-.21.14-.16.38.15.48h0c.11,0,.3-.24.45-.52h0c.56-.16.82-.42.8-1a5.85,5.85,0,0,0,3.08-2.9,6.76,6.76,0,0,1,1.88-2.4c3.31-2.85,5.43-6.77,8.75-9.6.9-.77.78-2.24,2.06-2.77a1,1,0,0,1,.24,0,1.62,1.62,0,0,1,1.52,1.2c.15,1.23.5,2.51-.34,3.79a50.11,50.11,0,0,0-2.31,4.64,26.12,26.12,0,0,0-2.83,14,2.73,2.73,0,0,0,2.82,2.61,3.61,3.61,0,0,0,1.3-.25c4.9-1.91,8.29-5.71,11.65-9.45.8-.88,1.56-2,2.35-3a22.25,22.25,0,0,0,2.25-3.08c1.58-2.93,3.4-5.81,4.19-9.06.57-2.34.9-4.86-.25-7.25a3.93,3.93,0,0,1-.22-1.5.6.6,0,0,1,.64-.7h.08a1.08,1.08,0,0,1,.69.23c.91,1.2,1.2,5.42,1.11,7.35a38.58,38.58,0,0,1-.93,5.43v-.17a2.9,2.9,0,0,0-.62.23c-.21.13-.15.37.16.47h0c.11,0,.29-.24.44-.52h0c1-.3,1.3-1.43,2.15-1.78l.21,0c.83,0,1.12.82,1.67,1.26a4.18,4.18,0,0,1-3.63,3.61,1.8,1.8,0,0,1-.37,0c-1.07,0-.53-1.44-1.31-1.64a38.22,38.22,0,0,1-5.85,9.25,60.06,60.06,0,0,1-5.22,5.81c-1.71,1.52-3.86,2.57-5.43,4.21a5.39,5.39,0,0,1-4.23,1.61c-.92,0-1.86-.1-2.79-.11-1.42,0-3.13-2.76-3.3-4.71-.23-2.63.68-7.23,2-11.23.59-1.83,1.4-3.6,1.85-5.56-1.6,1.67-3.75,2.71-4.66,5a4.32,4.32,0,0,1-1.32,1.45c-3.18,2.62-5.15,6.31-8.19,9.08a12.46,12.46,0,0,0-3.22,4.26,2.36,2.36,0,0,1-2.46,1.79c-.57,0-1.19-.09-1.87-.12,1-2.21,1.6-4.3,2.79-6C213.73,88,216,81,219.6,74.76c.54-1,.84-2.41,1.31-3.41a9.57,9.57,0,0,0,1-3.68c.15-1.47.47-2.8-.33-4.37a2.9,2.9,0,0,0-2.92-1.88h-.43A14.64,14.64,0,0,0,212,63c-5.68,2.58-11,5.62-15.53,10-1.15,1.11-1.57,2.67-2.79,3.68-.84.69.09,2.18-1.15,2.73l1.2,2.08h2.32c.49.34.36.44.13.73a2.43,2.43,0,0,1-1.95,1,3.07,3.07,0,0,1-1.57-.48c-1.41-.89-2.39-3.84-1.54-5.13,1-1.58,1.73-3.32,3.08-4.78a48.17,48.17,0,0,1,17.31-11.56,19.13,19.13,0,0,1,5-1.43,12,12,0,0,1,1.48-.11m34.69,17.89h0M218,57.79a15.08,15.08,0,0,0-1.72.12,21.1,21.1,0,0,0-5.54,1.57c-7.52,3.14-13.41,7.08-18,12.06A17.17,17.17,0,0,0,190.42,75c-.31.56-.6,1.08-.93,1.58a4.91,4.91,0,0,0-.48,3.77,6.64,6.64,0,0,0,2.64,4.15,4.89,4.89,0,0,0,2.62.79,4.45,4.45,0,0,0,3.52-1.77,2.36,2.36,0,0,0,.61-1.91,2.53,2.53,0,0,0-1.19-1.71,2,2,0,0,0-1.12-.35H195a4.57,4.57,0,0,0,.26-1.47V78a9.88,9.88,0,0,0,1.63-2.16,6.63,6.63,0,0,1,1-1.36c3.76-3.68,8.38-6.65,15-9.64a13,13,0,0,1,5.32-1.43h.34c.77,0,.84,0,1.22.8a4.07,4.07,0,0,1,.2,2.61c0,.21,0,.43-.07.64a7.67,7.67,0,0,1-.77,3,18.28,18.28,0,0,0-.66,1.74,10.23,10.23,0,0,1-.59,1.54c-1.48,2.59-2.75,5.31-4,7.93a70.68,70.68,0,0,1-6,11A20.11,20.11,0,0,0,205.77,97c-.27.66-.55,1.35-.85,2a2,2,0,0,0,1.71,2.83l.75.06c.4,0,.81.07,1.23.07a4.33,4.33,0,0,0,4.32-3,10.15,10.15,0,0,1,2.71-3.53,36.59,36.59,0,0,0,4-4.52,29.2,29.2,0,0,1,4.1-4.5l.09-.07h0a30,30,0,0,0-1.21,9.06c.23,2.6,2.46,6.53,5.3,6.54l1.26,0c.49,0,1,.06,1.53.06a7.42,7.42,0,0,0,5.67-2.23,18.37,18.37,0,0,1,2.7-2.12,26.12,26.12,0,0,0,2.62-2,40.54,40.54,0,0,0,4.1-4.44c.43-.52.86-1,1.3-1.55a38.19,38.19,0,0,0,4.82-7,3,3,0,0,0,.83.12,3.25,3.25,0,0,0,.8-.1,6.18,6.18,0,0,0,5.17-5.22,2,2,0,0,0-.73-1.91l-.18-.21a3.63,3.63,0,0,0-2.32-1.45c.07-.51.13-1,.15-1.56,0-.06.21-6.41-1.52-8.66a2.77,2.77,0,0,0-2.12-1h-.23a2.62,2.62,0,0,0-1.93.8,2.64,2.64,0,0,0-.71,2v.21a5,5,0,0,0,.41,2.06c.9,1.87.58,4,.11,5.91a29.3,29.3,0,0,1-3.12,7c-.3.54-.6,1.08-.89,1.63a15.45,15.45,0,0,1-1.6,2.21l-.45.56-.89,1.15c-.48.64-.94,1.24-1.39,1.75l-.09.1c-3.28,3.65-6.38,7.1-10.79,8.81a1.54,1.54,0,0,1-.58.12.74.74,0,0,1-.82-.75,24.31,24.31,0,0,1,2.61-13c.31-.6.58-1.21.85-1.8a19.28,19.28,0,0,1,1.35-2.65,6.22,6.22,0,0,0,.72-4.67l-.06-.46a3.61,3.61,0,0,0-3.51-3,2.88,2.88,0,0,0-.59,0,1.86,1.86,0,0,0-.42.12,4.44,4.44,0,0,0-2.34,2.59,3.54,3.54,0,0,1-.26.52A35.72,35.72,0,0,0,222.75,79c-.41.51-.82,1-1.23,1.51.37-.9.73-1.83,1.08-2.78.25-.68.51-1.36.77-2,1.5-3.86,3-7.86,2.36-12.59a2,2,0,0,0-.55-1.11c-2.8-2.86-4.27-4.23-7.14-4.23Z"/><path class="cls-3" d="M329.75,100.15a1.06,1.06,0,0,1-.54-.16,7,7,0,0,0-2-.74c-1.63-.45-3.66-1-4.47-3.61-.73-2.37-.76-3.17.71-5.06,2.55-3.27,6.31-4.19,9.63-5l1.19-.29A46.71,46.71,0,0,1,343,83.71l-1.63-2.29c-2.06-2.88-4-5.6-5.9-8.44-1.76-2.65-2.37-5-1.88-7s2.08-3.89,4.74-5.42a28.45,28.45,0,0,1,14.37-4.14l.95,0c.61,0,1.21,0,1.82,0l3.36,0c4.16,0,5.73,1.87,7.17,5.27a6.16,6.16,0,0,1,0,4.43,8.35,8.35,0,0,0-.34,1.68c0,.29-.16,1-1.22,1h-1a1,1,0,0,1-1-1v-4.6l-3-3a32.69,32.69,0,0,0-6.07-.61A22.53,22.53,0,0,0,338,65.16c-.6,3.48.42,6.33,3.34,9.46A68.16,68.16,0,0,1,346.39,81c.66.9,1.34,1.82,2.06,2.76h5.27a1,1,0,0,1,1,.75,1,1,0,0,1-.48,1.12,6.63,6.63,0,0,1-3.58.86h-.19a6.22,6.22,0,0,0-.63,0,1.13,1.13,0,0,0,0,.8c1.47,2.34.53,4.33-.22,5.92-.19.4-.38.8-.54,1.22-.83,2.24-2.61,3-4.18,3.59-.41.17-.84.34-1.25.54a18.36,18.36,0,0,1-8.39,1.58l-1.73,0-1.7,0c-.66,0-1.32,0-2,0Zm2.8-2.88a2.35,2.35,0,0,1,.47,0,2.62,2.62,0,0,0,.57.06,7.08,7.08,0,0,0,2-.42,8.53,8.53,0,0,1,2.62-.52,5.42,5.42,0,0,1,.81.07,1,1,0,0,1,.2-.14,2.18,2.18,0,0,1,.87-.37c2.73-.35,4.43-2.21,6.19-4.21,0-.24,0-.48,0-.73a6.37,6.37,0,0,0-.72-3.79,4.07,4.07,0,0,0-.5,0,9,9,0,0,0-2.24.4c-.49.13-1,.27-1.54.36-4.55.75-9.35,1.83-13.59,4.7-.54.36-1.19.91-1.2,1.43S327,95.27,328,96a2.24,2.24,0,0,0,1.41.32,3.27,3.27,0,0,1,2.64,1h.5Z"/><path class="cls-4" d="M352.66,57.37l.92,0c.61,0,1.23,0,1.84,0l3.05,0h.31c3.51,0,4.86,1.37,6.26,4.66.92,2.17-.33,3.79-.43,5.66a.88.88,0,0,1-.23,0h-.95v-5l-3.54-3.54a33.33,33.33,0,0,0-6.56-.69,23.67,23.67,0,0,0-16.27,6.16c-.87,4.4.7,7.62,3.53,10.66,2.59,2.77,4.71,6,7.37,9.43h5.76a5.61,5.61,0,0,1-3.09.73h-.19a4.47,4.47,0,0,0-1.23.12,2.06,2.06,0,0,0-.26,2.23c1.51,2.4-.08,4.23-.84,6.26-.88,2.35-3,2.63-4.94,3.59a17.42,17.42,0,0,1-7.95,1.47c-1.14,0-2.29,0-3.43,0q-1,0-2,.06c-2-1.28-5-.68-6-3.81-.66-2.11-.7-2.55.54-4.14,2.47-3.17,6.17-3.93,9.64-4.79a43.1,43.1,0,0,1,10.39-1.74h.56c-3-4.22-5.9-8.17-8.61-12.24-2.47-3.72-3.28-7.72,2.53-11.05a27.42,27.42,0,0,1,13.87-4M332.05,98.29l.5,0a1.14,1.14,0,0,1,.26,0,3.44,3.44,0,0,0,.78.08c1.59,0,3.05-.94,4.64-.94a3.55,3.55,0,0,1,.64.06H339c.5,0,.88-.47,1.23-.51,3.24-.43,5.15-2.65,7.07-4.84-.05-2,.3-4-1.15-5.8a5,5,0,0,0-1.07-.12,24.09,24.09,0,0,0-3.94.77c-5,.82-9.75,2-14,4.86-2.38,1.6-2.06,3.21.23,4.93,1.35,1,2.93,0,3.94,1.19a.85.85,0,0,0,.72.31m21.67-13.56h0m-1.07-29.36a29.37,29.37,0,0,0-14.87,4.27c-2.9,1.67-4.66,3.71-5.21,6.06s.1,4.94,2,7.83,3.85,5.59,5.92,8.48l.61.86a56.18,56.18,0,0,0-7.06,1.44l-.63.16-.56.13c-3.47.86-7.41,1.82-10.18,5.37-1.77,2.28-1.64,3.5-.87,6,1,3.13,3.49,3.83,5.15,4.29a6.7,6.7,0,0,1,1.69.61,2,2,0,0,0,1.08.32h.12c.57,0,1.18,0,1.92,0l1.68,0,1.75,0a19.25,19.25,0,0,0,8.83-1.68c.37-.18.77-.34,1.19-.51,1.67-.68,3.75-1.52,4.74-4.17.14-.36.32-.74.51-1.14.7-1.49,1.72-3.66.55-6.17a7.48,7.48,0,0,0,3.61-1,2,2,0,0,0-.92-3.77H349c-.61-.8-1.19-1.59-1.76-2.36a70.77,70.77,0,0,0-5.14-6.44c-2.62-2.8-3.56-5.24-3.14-8.25a21.53,21.53,0,0,1,14.42-5.2,30.59,30.59,0,0,1,5.58.54l2.52,2.52v4.19a2,2,0,0,0,2,2h.95a2,2,0,0,0,2.23-1.91,6.66,6.66,0,0,1,.31-1.45,7.2,7.2,0,0,0,0-5.09c-1.53-3.61-3.42-5.86-8.09-5.88h-3.37c-.68,0-1.24,0-1.77,0l-1,0ZM327.55,94.16a2.49,2.49,0,0,1,.73-.64c4.08-2.76,8.76-3.81,13.2-4.54.58-.1,1.11-.24,1.63-.38a9,9,0,0,1,1.87-.36,6.67,6.67,0,0,1,.33,2.8c0,.12,0,.24,0,.36-1.6,1.81-3.07,3.31-5.32,3.6a3,3,0,0,0-1.19.46,5.25,5.25,0,0,0-.56,0,9.71,9.71,0,0,0-2.91.56,6.4,6.4,0,0,1-1.73.38,2,2,0,0,1-.36,0,3,3,0,0,0-.68-.07h-.1a4.44,4.44,0,0,0-3-1c-.49,0-.73,0-.84-.12a3.53,3.53,0,0,1-1.05-1Z"/><path class="cls-3" d="M409.58,101.78a4.33,4.33,0,0,1-2.81-1.57,2.89,2.89,0,0,1-1.08-2.67c-1,.71-2.08,1.3-3.11,1.88-.63.35-1.27.71-1.88,1.09a3.28,3.28,0,0,1-1.7.5,4.52,4.52,0,0,1-2.68-1.13l-.21-.16a4.49,4.49,0,0,1-1.62-4.44c0-.09,5.15-12.57,5.93-13.37a2.34,2.34,0,0,1,1.72-.73,4.77,4.77,0,0,1,1.41.28,1.09,1.09,0,0,1,.64.53c.91,1.88.12,3.46-.52,4.74l-.23.47c-1.19,2.5-2.63,5.44-4.32,8.32a1.3,1.3,0,0,0-.15.73v.15h.26a4.34,4.34,0,0,0,2-.55,22.11,22.11,0,0,0,9.87-8.49,3.35,3.35,0,0,1,.67-.75,3.07,3.07,0,0,0,.26-.25,1,1,0,0,0,.09-.16l-.08-.08a1.85,1.85,0,0,1-.58-2.25,1.17,1.17,0,0,1,.27-.35l.1-.09a1.62,1.62,0,0,1,1-.58H413c.36,0,.74-.06,1.1-.06a5.3,5.3,0,0,1,1,.09l.13,0a2,2,0,0,0,.91-.47,3.69,3.69,0,0,1,2.13-.84,2.83,2.83,0,0,1,.9.15c.38.13.75.27,1.12.42a8.16,8.16,0,0,0,2.86.73l.35,0c.5,0,1-.06,1.55-.06a26.63,26.63,0,0,1,3.42.24,1,1,0,0,1,.86.8,1,1,0,0,1-.5,1.07c-1.37.75-1.93,1.19-2,2.57-.06,1.72-1.37,3.15-2.41,4.29-.17.18-.32.36-.47.53-3.11,3.54-6.89,7.4-12.4,8.56A2.85,2.85,0,0,1,409.58,101.78Zm8.26-15.14a29.81,29.81,0,0,0-6.76,9.19,6.63,6.63,0,0,1-.51.87c-.36.56-.57.9-.49,1.3h0c3.68-1.51,7-4.11,10.66-8.32a3.49,3.49,0,0,0,1.06-3Z"/><path class="cls-4" d="M402.14,82.18a4.29,4.29,0,0,1,1.15.24c.79,1.64-.12,3-.76,4.35-1.33,2.8-2.71,5.58-4.28,8.25-.48.83-.1,1.48-.49,2.16a5.07,5.07,0,0,0,1.46.23,5.42,5.42,0,0,0,2.4-.64,23.12,23.12,0,0,0,10.29-8.89,7.55,7.55,0,0,1,.84-.86,4.5,4.5,0,0,0,.38-.64c.27-.9-1.27-1.1-.8-2.07.19-.16.37-.43.57-.45.39,0,.8-.07,1.19-.07a4.28,4.28,0,0,1,.81.07,1.37,1.37,0,0,0,.34,0c1.15,0,1.85-1.31,3-1.31a1.81,1.81,0,0,1,.58.1,13.49,13.49,0,0,0,4.3,1.2l.44,0c.49,0,1-.06,1.46-.06a26.54,26.54,0,0,1,3.3.23c-1.44.79-2.43,1.48-2.51,3.41-.06,1.59-1.6,3-2.64,4.2-3.29,3.75-6.89,7.3-12.14,8.3a2.06,2.06,0,0,1-1.49.83c-.74,0-1.4-.61-2.13-1.29-1.32-1.25-.78-2.27,0-3.4.1-.15-.06-.49-.18-1.18-2.19,2.2-4.78,3.29-7.14,4.74A2.17,2.17,0,0,1,399,100a4.05,4.05,0,0,1-2.3-1.1,3.49,3.49,0,0,1-1.23-3.42c.15-.67,5.28-12.49,5.67-12.88a1.33,1.33,0,0,1,1-.43m7.51,17.06c4.81-1.75,8.53-5.09,11.84-8.9a4.32,4.32,0,0,0,1-4.7h-5.09a31.51,31.51,0,0,0-7.27,9.77c-.4.87-1.29,1.62-1.07,2.78a1.24,1.24,0,0,0,.55,1m-7.51-19.06a3.32,3.32,0,0,0-2.43,1c-.3.3-.53.54-3.33,6.93-1.79,4.11-2.76,6.44-2.86,6.93a5.46,5.46,0,0,0,2,5.46l.2.15A5.43,5.43,0,0,0,399,102a4.23,4.23,0,0,0,2.22-.65c.59-.37,1.21-.71,1.85-1.07s1.21-.68,1.82-1a4.66,4.66,0,0,0,1.19,1.69,5.21,5.21,0,0,0,3.5,1.84,3.7,3.7,0,0,0,2.46-1c5.67-1.29,9.51-5.22,12.68-8.82.14-.17.3-.34.46-.51,1.15-1.27,2.59-2.84,2.67-4.93,0-.8.15-1,1.47-1.73a2,2,0,0,0-.71-3.74,27,27,0,0,0-3.55-.25c-.56,0-1.12,0-1.64.07h-.26a7.2,7.2,0,0,1-2.5-.67c-.38-.15-.77-.3-1.16-.43a4,4,0,0,0-1.22-.2,4.65,4.65,0,0,0-2.7,1,4,4,0,0,1-.4.27,6.16,6.16,0,0,0-1.09-.09c-.42,0-.83,0-1.19.06l-.17,0a2.61,2.61,0,0,0-1.66.87l0,0a2,2,0,0,0-.51.67,2.66,2.66,0,0,0,.21,2.73,3.56,3.56,0,0,0-.53.67A21,21,0,0,1,400.76,95l-.23.11c1.47-2.59,2.74-5.19,3.81-7.44l.23-.46c.65-1.31,1.64-3.29.52-5.61a2,2,0,0,0-1.21-1,5.92,5.92,0,0,0-1.74-.33Zm16.1,7.46h2.55A3.48,3.48,0,0,1,420,89a31.55,31.55,0,0,1-7.81,6.84,29.17,29.17,0,0,1,6.07-8.22Z"/><path class="cls-3" d="M423.07,102.05c-1.57,0-1.92-1.34-2.11-2.06a1,1,0,0,1,.37-1l5.58-4.21a7.84,7.84,0,0,1-1.36-2.11c-.11-.24-.23-.49-.36-.72a5.05,5.05,0,0,1-.06-4,7.44,7.44,0,0,1,2.17-3c4.1-2.83,8.34-5.76,13.57-7l.62-.15a16.14,16.14,0,0,1,3.73-.56l.77,0a1,1,0,0,1,.91,1c-.07,1.64-.18,4.12-2.41,4.12a5.78,5.78,0,0,1-1.94-.45,4.4,4.4,0,0,0-1.59-.31,6.22,6.22,0,0,0-2.42.59,28,28,0,0,0-3.71,2c-.77.47-1.57,1-2.4,1.39a3.85,3.85,0,0,0-1.58,1.83c-.86,1.94-.75,2.72.55,4,.27.26.42.26.5.26a2,2,0,0,0,.81-.27A46.78,46.78,0,0,1,438.25,89a11.14,11.14,0,0,1,2.16-.53,9.14,9.14,0,0,0,2.13-.57,16.1,16.1,0,0,1,2.43-.77c.43-.11.86-.22,1.28-.35a1,1,0,0,1,.29,0,1,1,0,0,1,.94.66,2.14,2.14,0,0,1-.18,1.93,2.11,2.11,0,0,1-1.48,1c-3.59.3-6.6,2-9.79,3.74l-1.87,1-.1,0a5.06,5.06,0,0,1,.06,2.75,2.79,2.79,0,0,1-1.72,1.83,3.66,3.66,0,0,0-.55.32,7.87,7.87,0,0,1-5.08,1.53,10.35,10.35,0,0,0-2.3.28A5.1,5.1,0,0,1,423.07,102.05Zm5.9-4.52v0h0Z"/><path class="cls-4" d="M445.22,78.25c.23,0,.45,0,.68,0-.1,2.26-.38,3.16-1.41,3.16a4.93,4.93,0,0,1-1.59-.39,5.58,5.58,0,0,0-1.94-.37,7.11,7.11,0,0,0-2.8.67c-2.22.92-4.11,2.33-6.2,3.44a4.81,4.81,0,0,0-2,2.31c-1,2.19-.9,3.47.77,5.08a1.66,1.66,0,0,0,1.2.54,2.77,2.77,0,0,0,1.27-.39,47.15,47.15,0,0,1,5.43-2.41c1.42-.53,2.93-.47,4.35-1.12a33.05,33.05,0,0,1,3.59-1.07,1.16,1.16,0,0,1-.8,1.57c-4.54.38-8.21,2.82-12.05,4.87a5.66,5.66,0,0,1-1.21.32,3.16,3.16,0,0,1,.66,3.16c-.18.87-1.31,1.07-1.93,1.58-2.18,1.8-4.75,1-7,1.62a4.63,4.63,0,0,1-1.13.2c-.69,0-.91-.41-1.14-1.31l6.65-5c-1.49-.75-1.87-2.15-2.52-3.3a4.18,4.18,0,0,1,0-3.13,6.53,6.53,0,0,1,1.82-2.55c4.08-2.83,8.19-5.67,13.22-6.81a18.65,18.65,0,0,1,4.13-.68M426,99.89a.66.66,0,0,0,.75-.8.65.65,0,0,1-.19,0c-.33,0-.63-.14-.45-.14a2.27,2.27,0,0,1,.57.11c.31,0,.62,0,.93,0A2.18,2.18,0,0,0,429.86,98a1.1,1.1,0,0,0-.08-1,1.31,1.31,0,0,0-.77-.24.37.37,0,0,0-.24.06c-.68.76-1.7,1.24-3.54,2.8.21.11.41.3.62.32H426m19.19-23.64h0a17.18,17.18,0,0,0-4,.59l-.61.14c-5.42,1.23-9.74,4.22-13.92,7.11a8.44,8.44,0,0,0-2.53,3.45,6.08,6.08,0,0,0,.12,4.85c.12.22.23.44.34.67a12,12,0,0,0,.82,1.49l-1.12.85-3.63,2.74a2,2,0,0,0-.74,2.1,3.21,3.21,0,0,0,3.08,2.81,5.85,5.85,0,0,0,1.67-.28,9.91,9.91,0,0,1,2.08-.24,8.78,8.78,0,0,0,5.66-1.76l.38-.2a3.75,3.75,0,0,0,2.24-2.52,6.67,6.67,0,0,0,.11-2.43c.44-.23.87-.47,1.3-.71,3.1-1.72,6-3.34,9.39-3.62a3.11,3.11,0,0,0,2.24-1.42,3.18,3.18,0,0,0,.29-2.81,2,2,0,0,0-1.89-1.33,2.32,2.32,0,0,0-.58.08c-.4.13-.83.24-1.24.34a16.45,16.45,0,0,0-2.6.83,7.88,7.88,0,0,1-1.89.49,13,13,0,0,0-2.33.58,50.59,50.59,0,0,0-5.66,2.51l-.23.11c-.81-.79-1-1.11-.25-2.76a2.84,2.84,0,0,1,1.14-1.36c.85-.45,1.66-.94,2.45-1.42a28.49,28.49,0,0,1,3.58-1.94,5.39,5.39,0,0,1,2-.51,3.62,3.62,0,0,1,1.24.24,6.34,6.34,0,0,0,2.29.52c3.18,0,3.34-3.43,3.41-5.07a2,2,0,0,0-1.82-2.09c-.28,0-.57,0-.86,0Z"/><path class="cls-5" d="M92.86,57.4a2.49,2.49,0,0,1-2.15-1.24L82.26,41.69a2.49,2.49,0,0,1,0-2.49l8.23-14.6a2.52,2.52,0,0,1,2.16-1.27h0a2.51,2.51,0,0,1,2.15,1.23l8.7,14.72a2.51,2.51,0,0,1,0,2.54L95,56.17a2.51,2.51,0,0,1-2.15,1.23Z"/><path d="M92.65,25.83l8.7,14.72L92.87,54.9,84.42,40.42l8.23-14.59m0-5H92.6a5,5,0,0,0-4.3,2.54L80.06,38a5,5,0,0,0,0,5l8.45,14.47a5,5,0,0,0,4.31,2.48h0a5,5,0,0,0,4.3-2.46l8.48-14.35a5,5,0,0,0,0-5.08L97,23.29a5,5,0,0,0-4.31-2.46Z"/><path class="cls-6" d="M92.51,86.42a2.49,2.49,0,0,1-2.11-1.24L80.51,68.32l-2.15,3.16a3.05,3.05,0,0,1-2.51,1.33,3,3,0,0,1-2.6-1.47L66.16,59.6a3,3,0,0,1-.43-1.54V42.45A2.5,2.5,0,0,1,67.63,40a2.47,2.47,0,0,1,.6-.08,2.51,2.51,0,0,1,2.21,1.32l5.49,10.27L78.05,48a3,3,0,0,1,2.6-1.47,3,3,0,0,1,2.46,1.25L93.06,60l10-12.25a3,3,0,0,1,5.06.22l2.13,3.54,5.48-10.27A2.53,2.53,0,0,1,117.89,40a2.62,2.62,0,0,1,.61.08,2.5,2.5,0,0,1,1.89,2.42V58.06A3,3,0,0,1,120,59.6l-7.08,11.74a3,3,0,0,1-2.6,1.47,3.06,3.06,0,0,1-2.52-1.33l-2.22-3.26-10.87,17a2.51,2.51,0,0,1-2.11,1.16Z"/><path d="M117.89,42.45V58.07a.44.44,0,0,1-.07.24l-7.08,11.74a.56.56,0,0,1-.46.26.54.54,0,0,1-.45-.24l-3.89-5.72a.56.56,0,0,0-.45-.23.53.53,0,0,0-.45.24L92.56,83.92,81.08,64.36a.52.52,0,0,0-.45-.24.53.53,0,0,0-.44.23l-3.9,5.72a.53.53,0,0,1-.44.24.53.53,0,0,1-.46-.26L68.3,58.31a.55.55,0,0,1-.07-.24V42.45l7.14,13.34a.51.51,0,0,0,.46.26.52.52,0,0,0,.46-.25l3.9-6.52a.55.55,0,0,1,.92,0L93.06,64c-.1.16,0,.24,0,.24s.1-.08,0-.24l12-14.72a.53.53,0,0,1,.46-.25.52.52,0,0,1,.46.25l3.9,6.52a.55.55,0,0,0,.93,0l7.13-13.34m0-5a5,5,0,0,0-4.41,2.64l-3.41,6.39a5.57,5.57,0,0,0-4.6-2.45A5.47,5.47,0,0,0,101,46.26l-8,9.81-8-9.81A5.49,5.49,0,0,0,80.65,44a5.57,5.57,0,0,0-4.6,2.45l-3.41-6.39a5,5,0,0,0-9.41,2.36V58.07A5.5,5.5,0,0,0,64,60.89l7.09,11.74a5.53,5.53,0,0,0,9.24.36l7.9,13.46a5,5,0,0,0,4.22,2.47h.09a5,5,0,0,0,4.21-2.31l8.84-13.85.09.13a5.54,5.54,0,0,0,9.32-.26l7.08-11.74a5.41,5.41,0,0,0,.79-2.82V42.45a5,5,0,0,0-5-5Z"/><path class="cls-7" d="M81.8,141.76A3.8,3.8,0,0,1,78.63,140a3.75,3.75,0,0,1-.21-3.6L88,116.24a5.43,5.43,0,0,1,9.82,0l9.3,20a3.71,3.71,0,0,1-.23,3.58,3.78,3.78,0,0,1-3.16,1.75,3.73,3.73,0,0,1-1.84-.49l-9.11-5.14-9,5.32a3.81,3.81,0,0,1-1.91.52Z"/><path d="M92.85,115.64a2.89,2.89,0,0,1,2.66,1.69l9.29,19.94a1.25,1.25,0,0,1-1.12,1.78,1.18,1.18,0,0,1-.61-.17l-9.75-5.49a1.21,1.21,0,0,0-.61-.16,1.17,1.17,0,0,0-.63.17l-9.64,5.68a1.2,1.2,0,0,1-.64.18,1.25,1.25,0,0,1-1.12-1.78l9.53-20.17a2.88,2.88,0,0,1,2.64-1.67m0-5h0a7.85,7.85,0,0,0-7.16,4.54l-9.53,20.17a6.24,6.24,0,0,0,5.64,8.91,6.28,6.28,0,0,0,3.18-.87l7.77-4.58,7.86,4.43a6.25,6.25,0,0,0,8.73-8.08l-9.3-20a7.86,7.86,0,0,0-7.18-4.57Z"/><path class="cls-8" d="M38.36,123.39a2.51,2.51,0,0,1-2.18-3.73l8.32-14.74a2.49,2.49,0,0,1,2.18-1.28l16.52.17a2.5,2.5,0,0,1,2.15,3.74L57.12,122A2.51,2.51,0,0,1,55,123.22Z"/><path d="M46.68,106.14l16.5.17L55,120.72l-16.59.17,8.32-14.75m0-5a5,5,0,0,0-4.36,2.55L34,118.43a5,5,0,0,0,4.36,7.46h0L55,125.72a5,5,0,0,0,4.29-2.52l8.23-14.41a5,5,0,0,0-4.29-7.48l-16.5-.17Z"/><path class="cls-9" d="M64.91,136.47a2.49,2.49,0,0,1-2.12-3.82L69,122.71l-4.17-.07a3,3,0,0,1-2.56-1.51,3,3,0,0,1-.16-2.77l5.67-14.81-15.66-2.5a3.05,3.05,0,0,1-2.35-4.5l2-3.64L40,93.29a2.5,2.5,0,0,1-1.25-4.66c1.26-.73,2-1.16,2.51-1.42v0l11.08-6.4a3,3,0,0,1,1.48-.4l13.83.27A3,3,0,0,1,70.3,85L68.57,88.6l20.3.9a2.51,2.51,0,0,1,2.06,3.74l-9.7,17.08,3.84.29a3,3,0,0,1,2.45,1.58,3,3,0,0,1,0,2.91l-6.66,12.06a2.9,2.9,0,0,1-1.11,1.14l-13.58,7.84A2.54,2.54,0,0,1,64.91,136.47Z"/><path d="M53.79,82.89h0l13.77.27a.54.54,0,0,1,.48.77l-3,6.26a.55.55,0,0,0,.46.78l23.27,1L77.51,111.8a.55.55,0,0,0,.44.78l6.94.52a.54.54,0,0,1,.43.8L78.66,126a.46.46,0,0,1-.17.17l-11.08,6.4L64.91,134l8-12.9a.54.54,0,0,0-.46-.8l-7.62-.13a.55.55,0,0,1-.47-.79l6.8-17.78h0c.24,0,.23-.15.15-.15s-.11,0-.17.15l-18.8-3a.55.55,0,0,1-.46-.8l3.71-6.66a.54.54,0,0,0-.46-.8h0L40,90.79l2.57-1.48-.07,0,.07,0h0l11-6.35a.39.39,0,0,1,.23-.07m0-5a5.46,5.46,0,0,0-2.73.74L40.05,85l0,0h0l-2.5,1.44A5,5,0,0,0,40,95.79h.16l7.3-.24a5.54,5.54,0,0,0,4.29,8l12.58,2-4.55,11.9a5.6,5.6,0,0,0,.32,5,5.54,5.54,0,0,0,4.44,2.74l-3.86,6.2a5,5,0,0,0,6.75,7l2.5-1.44L81,130.46A5.42,5.42,0,0,0,83,128.37l6.66-12.06a5.54,5.54,0,0,0-4.35-8.19L93.1,94.47A5,5,0,0,0,89,87l-16.51-.74.08-.17a5.54,5.54,0,0,0-4.88-7.94L53.9,77.89Z"/><path class="cls-10" d="M118.59,79.72a5.43,5.43,0,0,1-4.43-8.54l12.63-18a3.67,3.67,0,0,1,3-1.6,3.72,3.72,0,0,1,3.76,3.71l.1,10.46,9.12,5.15a3.75,3.75,0,0,1-1.54,7L119.05,79.7A3.54,3.54,0,0,1,118.59,79.72Z"/><path d="M129.84,54.06a1.24,1.24,0,0,1,1.26,1.23l.11,11.19a1.27,1.27,0,0,0,.63,1.07l9.75,5.51a1.24,1.24,0,0,1-.51,2.32l-22.23,1.83h-.26a2.92,2.92,0,0,1-2.38-4.6l12.63-18a1.2,1.2,0,0,1,1-.53m0-5h0a6.24,6.24,0,0,0-5.1,2.66l-12.62,18a7.92,7.92,0,0,0,6.47,12.47l.67,0,22.23-1.83a6.24,6.24,0,0,0,2.56-11.66l-7.86-4.44-.09-9a6.27,6.27,0,0,0-6.26-6.18Z"/><path class="cls-11" d="M130.69,122.93a2.48,2.48,0,0,1-2.17-1.27l-8.06-14.29a2.5,2.5,0,0,1,2.16-3.73l16.51-.08a2.51,2.51,0,0,1,2.16,1.23L149.68,119a2.5,2.5,0,0,1-2.13,3.77Z"/><path d="M139.13,106.06l8.39,14.21-16.83.16-8.06-14.29,16.5-.08m0-5h0l-16.5.07a5,5,0,0,0-4.33,7.46l8.06,14.29a5,5,0,0,0,4.35,2.54h.05l16.83-.16a5,5,0,0,0,4.26-7.55l-8.39-14.2a5,5,0,0,0-4.31-2.46Z"/><path class="cls-12" d="M120.82,136.66a2.54,2.54,0,0,1-1.25-.33l-13.64-7.88a3,3,0,0,1-1.12-1.14l-6.68-12.12a3,3,0,0,1,2.43-4.5l4-.29L95.15,92.26a2.5,2.5,0,0,1,2.2-3.65l19.76-.14L115.42,85a3,3,0,0,1,2.68-4.36l13.84-.26a3,3,0,0,1,1.54.39l13.64,7.88a2.5,2.5,0,0,1-1.25,4.67L134,92.89l2.05,3.68a3.05,3.05,0,0,1-2.35,4.5L118,103.58l5.69,14.9a3,3,0,0,1-2.72,4.29l-4.21.06,6.23,10a2.5,2.5,0,0,1-2.13,3.82Z"/><path d="M132,82.84a.46.46,0,0,1,.23.06l11.14,6.43,2.5,1.45-15.25-.5h0a.55.55,0,0,0-.48.8l3.73,6.7a.55.55,0,0,1-.46.8l-18.89,3c-.06-.11-.12-.15-.17-.15s-.09.15.16.15h0l6.83,17.87a.55.55,0,0,1-.46.8l-7.67.12a.55.55,0,0,0-.46.81l8.06,13-2.58-1.49-11.06-6.38a.77.77,0,0,1-.18-.18L100.31,114a.54.54,0,0,1,.43-.79l7-.52a.55.55,0,0,0,.44-.79L97.37,91.11,120.24,91a.56.56,0,0,0,.47-.78l-3-6.29a.54.54,0,0,1,.47-.78L132,82.84h0m-13.76,49.83h0l.07,0-.07,0m.07,0h0M132,77.84h-.11l-13.84.27A5.54,5.54,0,0,0,113.14,86l-15.81.11a5,5,0,0,0-4.4,7.31l7.67,14.76-.23,0a5.54,5.54,0,0,0-4.43,8.2l6.69,12.12a5.51,5.51,0,0,0,2.05,2.1L115.74,137l.07,0,1.77,1,.74.43a5,5,0,0,0,6.75-7l-3.89-6.26a5.55,5.55,0,0,0,4.79-7.71l-4.58-12,12.67-2a5.55,5.55,0,0,0,4.28-8l7.37.24h.16a5,5,0,0,0,2.5-9.33L145.86,85l-11.13-6.43a5.47,5.47,0,0,0-2.73-.73Z"/><path class="cls-13" d="M67.5,79.7l-.49,0L45.08,77.75a3.74,3.74,0,0,1-1.57-7l9-5.32L52.42,55a3.68,3.68,0,0,1,1.07-2.66,3.8,3.8,0,0,1,2.69-1.12,3.7,3.7,0,0,1,3.06,1.61l12.7,18.34A5.43,5.43,0,0,1,67.5,79.7Z"/><path d="M56.18,53.73a1.19,1.19,0,0,1,1,.54L69.89,72.61A2.93,2.93,0,0,1,67.5,77.2h-.27L45.3,75.26A1.24,1.24,0,0,1,44.78,73l9.63-5.69A1.22,1.22,0,0,0,55,66.18L54.92,55a1.24,1.24,0,0,1,1.26-1.26m0-5h0a6.3,6.3,0,0,0-4.46,1.86A6.13,6.13,0,0,0,49.92,55l.08,9-7.76,4.59a6.24,6.24,0,0,0,2.63,11.59l21.92,1.93.71,0A7.92,7.92,0,0,0,74,69.76L61.29,51.42a6.23,6.23,0,0,0-5.11-2.69Z"/></g></g></svg>