<svg xmlns="http://www.w3.org/2000/svg" xmlns:xlink="http://www.w3.org/1999/xlink" viewBox="0 0 119.16 123.43"><defs><style>.cls-1{fill:url(#Degradado_sin_nombre_99);}.cls-2{fill:url(#Degradado_sin_nombre_99-2);}.cls-3{fill:url(#Degradado_sin_nombre_99-3);}.cls-4{fill:url(#Degradado_sin_nombre_99-4);}.cls-5{fill:url(#Degradado_sin_nombre_99-5);}.cls-6{fill:url(#Degradado_sin_nombre_99-6);}.cls-7{fill:url(#Degradado_sin_nombre_99-7);}.cls-8{fill:url(#Degradado_sin_nombre_99-8);}.cls-9{fill:url(#Degradado_sin_nombre_99-9);}</style><radialGradient id="Degradado_sin_nombre_99" cx="59.52" cy="19.53" r="14.32" gradientUnits="userSpaceOnUse"><stop offset="0" stop-color="#fff"/><stop offset="0.2" stop-color="#edece8"/><stop offset="0.4" stop-color="#b5cce2"/><stop offset="0.8" stop-color="#0072b0"/></radialGradient><radialGradient id="Degradado_sin_nombre_99-2" cx="59.7" cy="42.35" r="25.36" xlink:href="#Degradado_sin_nombre_99"/><radialGradient id="Degradado_sin_nombre_99-3" cx="59.38" cy="106.62" r="14.5" xlink:href="#Degradado_sin_nombre_99"/><radialGradient id="Degradado_sin_nombre_99-4" cx="17.41" cy="92.68" r="12.64" xlink:href="#Degradado_sin_nombre_99"/><radialGradient id="Degradado_sin_nombre_99-5" cx="31.01" cy="87.6" r="27.47" xlink:href="#Degradado_sin_nombre_99"/><radialGradient id="Degradado_sin_nombre_99-6" cx="95.59" cy="44.81" r="14.95" xlink:href="#Degradado_sin_nombre_99"/><radialGradient id="Degradado_sin_nombre_99-7" cx="101.72" cy="92.42" r="12.59" xlink:href="#Degradado_sin_nombre_99"/><radialGradient id="Degradado_sin_nombre_99-8" cx="88.26" cy="87.67" r="27.47" xlink:href="#Degradado_sin_nombre_99"/><radialGradient id="Degradado_sin_nombre_99-9" cx="23.93" cy="44.63" r="14.94" xlink:href="#Degradado_sin_nombre_99"/></defs><title>Recurso 3</title><g id="Capa_2" data-name="Capa 2"><g id="Capa_1-2" data-name="Capa 1"><path class="cls-1" d="M59.5,36.57a2.49,2.49,0,0,1-2.15-1.24L48.9,20.85a2.49,2.49,0,0,1,0-2.49L57.11,3.77A2.5,2.5,0,0,1,59.27,2.5h0a2.49,2.49,0,0,1,2.15,1.23l8.7,14.72a2.51,2.51,0,0,1,0,2.54L61.66,35.34a2.51,2.51,0,0,1-2.15,1.23Z"/><path d="M59.29,5,68,19.72,59.51,34.07,51.06,19.59,59.29,5m0-5h0a5,5,0,0,0-4.3,2.54L46.7,17.14a5,5,0,0,0,0,5l8.45,14.48a5,5,0,0,0,4.31,2.48h0a5,5,0,0,0,4.3-2.46l8.48-14.35a5,5,0,0,0,0-5.08L63.6,2.46A5,5,0,0,0,59.29,0Z"/><path class="cls-2" d="M59.15,65.59A2.52,2.52,0,0,1,57,64.35L47.15,47.49,45,50.65A3.05,3.05,0,0,1,42.49,52a3,3,0,0,1-2.6-1.47L32.8,38.77a3,3,0,0,1-.43-1.54V21.62a2.5,2.5,0,0,1,1.9-2.43,2.46,2.46,0,0,1,.6-.07,2.5,2.5,0,0,1,2.21,1.32l5.49,10.27,2.12-3.54a3,3,0,0,1,2.6-1.47A3,3,0,0,1,49.75,27l10,12.25L69.65,27a3,3,0,0,1,5.06.22l2.13,3.54,5.49-10.27a2.48,2.48,0,0,1,2.2-1.32,2.6,2.6,0,0,1,.61.07A2.5,2.5,0,0,1,87,21.62V37.23a3,3,0,0,1-.43,1.54L79.52,50.51a3,3,0,0,1-5.11.14l-2.22-3.26-10.88,17a2.51,2.51,0,0,1-2.11,1.16Z"/><path d="M84.53,21.62V37.23a.4.4,0,0,1-.07.24L77.38,49.22a.56.56,0,0,1-.46.26.54.54,0,0,1-.45-.24l-3.89-5.72a.56.56,0,0,0-.45-.23.53.53,0,0,0-.45.24L59.2,63.09,47.72,43.53a.52.52,0,0,0-.45-.24.53.53,0,0,0-.44.23l-3.9,5.72a.53.53,0,0,1-.44.24.53.53,0,0,1-.46-.26L34.94,37.47a.48.48,0,0,1-.07-.24V21.62L42,35a.53.53,0,0,0,.46.26.52.52,0,0,0,.46-.25l3.9-6.52a.55.55,0,0,1,.92,0l12,14.72c-.1.16-.05.24,0,.24s.1-.08,0-.24l12-14.72a.51.51,0,0,1,.45-.25.52.52,0,0,1,.46.25L76.48,35a.51.51,0,0,0,.45.25A.54.54,0,0,0,77.4,35l7.13-13.34m0-5a5,5,0,0,0-4.41,2.64l-3.41,6.38a5.58,5.58,0,0,0-4.6-2.44,5.49,5.49,0,0,0-4.44,2.22l-8,9.81-8-9.8a5.49,5.49,0,0,0-4.45-2.23,5.55,5.55,0,0,0-4.59,2.44l-3.42-6.38a5,5,0,0,0-9.41,2.36V37.23a5.51,5.51,0,0,0,.79,2.83L37.75,51.8a5.53,5.53,0,0,0,9.24.36l7.9,13.46a5,5,0,0,0,4.22,2.47h.09a5,5,0,0,0,4.21-2.31l8.84-13.85.09.12a5.53,5.53,0,0,0,4.58,2.43,5.59,5.59,0,0,0,4.74-2.68l7.08-11.74a5.42,5.42,0,0,0,.79-2.83V21.62a5,5,0,0,0-3.78-4.85,5.15,5.15,0,0,0-1.22-.15Z"/><path class="cls-3" d="M48.44,120.93a3.81,3.81,0,0,1-3.17-1.75,3.75,3.75,0,0,1-.21-3.6l9.53-20.17a5.42,5.42,0,0,1,9.82,0l9.3,20a3.71,3.71,0,0,1-.23,3.58,3.72,3.72,0,0,1-5,1.26l-9.11-5.14-9,5.32a3.81,3.81,0,0,1-1.91.52Z"/><path d="M59.5,94.8a2.91,2.91,0,0,1,2.65,1.69l9.3,20a1.25,1.25,0,0,1-1.13,1.78,1.18,1.18,0,0,1-.61-.17L60,112.55a1.32,1.32,0,0,0-.61-.16,1.18,1.18,0,0,0-.63.18l-9.64,5.68a1.2,1.2,0,0,1-.64.18,1.25,1.25,0,0,1-1.12-1.78l9.53-20.17A2.9,2.9,0,0,1,59.5,94.8m0-5h0a7.86,7.86,0,0,0-7.17,4.54L42.8,114.51a6.25,6.25,0,0,0,5.64,8.92,6.28,6.28,0,0,0,3.18-.87L59.39,118l7.86,4.44A6.25,6.25,0,0,0,76,114.33l-9.3-20A7.86,7.86,0,0,0,59.5,89.8Z"/><path class="cls-4" d="M5,102.56a2.51,2.51,0,0,1-2.18-3.73l8.32-14.75a2.51,2.51,0,0,1,2.18-1.27L29.84,83A2.5,2.5,0,0,1,32,86.72l-8.23,14.41a2.51,2.51,0,0,1-2.15,1.26Z"/><path d="M13.32,85.31l16.5.17L21.59,99.89,5,100.06l8.32-14.75m0-5A5,5,0,0,0,9,82.86L.65,97.6A5,5,0,0,0,5,105.06h0l16.59-.17a5,5,0,0,0,4.29-2.52L34.16,88a5,5,0,0,0-4.29-7.48l-16.5-.17Z"/><path class="cls-5" d="M31.55,115.64a2.5,2.5,0,0,1-2.12-3.82l6.18-9.94-4.16-.07a3.05,3.05,0,0,1-2.73-4.28l5.67-14.81-15.66-2.5a3.05,3.05,0,0,1-2.35-4.5l2-3.64-11.79.38A2.5,2.5,0,0,1,5.37,67.8c1.26-.73,2-1.16,2.51-1.43h0L19,60a3,3,0,0,1,1.49-.4l13.82.27a3,3,0,0,1,2.68,4.35l-1.73,3.59,20.3.9A2.52,2.52,0,0,1,57.59,70a2.49,2.49,0,0,1,0,2.44l-9.7,17.09,3.84.28a3,3,0,0,1,2.44,4.5l-6.66,12.06a2.94,2.94,0,0,1-1.11,1.13L32.8,115.31A2.54,2.54,0,0,1,31.55,115.64Z"/><path d="M20.43,62.06h0l13.78.27a.53.53,0,0,1,.47.77l-3,6.26a.54.54,0,0,0,.46.77l23.27,1L44.16,91a.54.54,0,0,0,.43.78l6.94.52a.53.53,0,0,1,.43.79L45.3,105.12a.42.42,0,0,1-.17.18l-11.08,6.4-2.5,1.44,8-12.9a.55.55,0,0,0-.45-.81l-7.63-.12a.55.55,0,0,1-.47-.79l6.8-17.79h0c.24,0,.24-.14.15-.14s-.11,0-.17.14l-18.8-3a.55.55,0,0,1-.45-.8l3.7-6.67a.54.54,0,0,0-.46-.79h0L6.62,70l2.57-1.48-.07,0,.07,0h0l11-6.36a.46.46,0,0,1,.23-.06m0-5a5.45,5.45,0,0,0-2.73.73l-11,6.36-.05,0h0l-2.5,1.44A5,5,0,0,0,6.62,75h.17l7.29-.24a5.54,5.54,0,0,0,4.29,8L31,84.7,26.4,96.6a5.55,5.55,0,0,0,4.76,7.7l-3.85,6.2a5,5,0,0,0,6.74,7l2.5-1.44,11.08-6.4a5.49,5.49,0,0,0,2-2.09l6.66-12.06A5.54,5.54,0,0,0,52,87.29l7.76-13.65a5,5,0,0,0-4.13-7.47l-16.51-.73.08-.17a5.54,5.54,0,0,0-4.88-7.94l-13.77-.27Z"/><path class="cls-6" d="M85.23,58.89a5.43,5.43,0,0,1-4.43-8.54l12.63-18a3.75,3.75,0,0,1,6.81,2.11l.11,10.47,9.11,5.15a3.74,3.74,0,0,1-1.53,7L85.69,58.87Z"/><path d="M96.48,33.23a1.23,1.23,0,0,1,1.26,1.23l.11,11.19a1.27,1.27,0,0,0,.63,1.07l9.75,5.51a1.24,1.24,0,0,1-.51,2.32L85.49,56.38h-.26a2.92,2.92,0,0,1-2.38-4.6l12.63-18a1.2,1.2,0,0,1,1-.53m0-5h0a6.24,6.24,0,0,0-5.1,2.66l-12.62,18a7.92,7.92,0,0,0,6.47,12.47l.67,0,22.23-1.83a6.24,6.24,0,0,0,2.56-11.66l-7.86-4.44-.09-9a6.27,6.27,0,0,0-6.26-6.18Z"/><path class="cls-7" d="M97.34,102.1a2.48,2.48,0,0,1-2.18-1.27L87.1,86.54a2.49,2.49,0,0,1,0-2.48,2.52,2.52,0,0,1,2.15-1.25l16.52-.08A2.51,2.51,0,0,1,107.93,84l8.39,14.2a2.51,2.51,0,0,1,0,2.5,2.48,2.48,0,0,1-2.15,1.27Z"/><path d="M105.78,85.23l8.38,14.2-16.82.17L89.27,85.31l16.51-.08m0-5h0l-16.5.08a5,5,0,0,0-4.33,7.46L93,102.06a5,5,0,0,0,4.35,2.54h0l16.83-.17a5,5,0,0,0,4.26-7.54l-8.39-14.2a5,5,0,0,0-4.3-2.46Z"/><path class="cls-8" d="M87.46,115.83a2.57,2.57,0,0,1-1.25-.33l-13.64-7.88a3.06,3.06,0,0,1-1.12-1.14L64.77,94.36a3,3,0,0,1,2.43-4.5l4-.29L61.79,71.43A2.5,2.5,0,0,1,64,67.78l19.76-.14-1.69-3.51a3,3,0,0,1,2.68-4.36l13.84-.26a3,3,0,0,1,1.54.39l13.64,7.88a2.49,2.49,0,0,1-1.25,4.66l-11.86-.38,2,3.67a3.05,3.05,0,0,1-2.35,4.5L84.6,82.75l5.69,14.9a3,3,0,0,1-2.72,4.28l-4.21.07,6.23,10a2.5,2.5,0,0,1-2.13,3.82Z"/><path d="M98.64,62a.48.48,0,0,1,.23.07L110,68.5l2.5,1.44-15.25-.49h0a.54.54,0,0,0-.47.8l3.72,6.7a.55.55,0,0,1-.46.8l-18.89,3c-.06-.11-.12-.15-.16-.15s-.1.15.15.15h0L88,98.64a.54.54,0,0,1-.46.79l-7.67.13a.55.55,0,0,0-.46.81l8.06,13-2.58-1.49-11.06-6.39a.52.52,0,0,1-.18-.18L67,93.15a.53.53,0,0,1,.43-.79l7-.52a.55.55,0,0,0,.44-.79L64,70.28l22.87-.16a.56.56,0,0,0,.47-.78l-3-6.3a.54.54,0,0,1,.48-.77L98.63,62h0M84.88,111.84h0l.07,0-.07,0m.07,0h0M98.64,57h-.11l-13.84.26a5.55,5.55,0,0,0-4.91,7.9L64,65.28a5,5,0,0,0-4.4,7.3l7.67,14.77-.22,0a5.54,5.54,0,0,0-4.44,8.2l6.69,12.12a5.42,5.42,0,0,0,2,2.09l11.06,6.39.07,0,1.77,1,.74.43a5,5,0,0,0,6.75-7l-3.89-6.26a5.55,5.55,0,0,0,4.79-7.71L88,84.73l12.67-2a5.56,5.56,0,0,0,4.28-8l7.37.24h.16a5,5,0,0,0,2.5-9.33l-2.5-1.44-11.14-6.43A5.48,5.48,0,0,0,98.64,57Z"/><path class="cls-9" d="M34.14,58.87l-.49,0L11.73,56.92a3.74,3.74,0,0,1-1.58-7l9-5.32-.1-10.47a3.68,3.68,0,0,1,1.07-2.66,3.8,3.8,0,0,1,2.69-1.12A3.7,3.7,0,0,1,25.88,32l12.7,18.34a5.43,5.43,0,0,1-4.44,8.52Z"/><path d="M22.82,32.9a1.2,1.2,0,0,1,1,.54l12.7,18.33a2.93,2.93,0,0,1-2.39,4.6l-.27,0L11.94,54.43a1.24,1.24,0,0,1-.52-2.31l9.63-5.69a1.23,1.23,0,0,0,.61-1.08l-.1-11.19a1.24,1.24,0,0,1,1.26-1.26m0-5h0a6.3,6.3,0,0,0-4.46,1.86,6.13,6.13,0,0,0-1.8,4.44l.08,9L8.88,47.82a6.24,6.24,0,0,0,2.63,11.59l21.92,1.93.71,0a7.93,7.93,0,0,0,6.5-12.44L27.94,30.59a6.24,6.24,0,0,0-5.12-2.69Z"/></g></g></svg>