<svg xmlns="http://www.w3.org/2000/svg" viewBox="0 0 268.07 88.92"><defs><style>.cls-1{fill:#333;}.cls-2{fill:#bcb19a;}</style></defs><title>Recurso 4</title><g id="Capa_2" data-name="Capa 2"><g id="Capa_1-2" data-name="Capa 1"><path class="cls-1" d="M165,87.92a10.14,10.14,0,0,1-9.31-5.5.1.1,0,0,0-.05,0,1.34,1.34,0,0,1-.59-1.16,41.09,41.09,0,0,0,.06-4.31,29.91,29.91,0,0,1,.41-6.82A79.83,79.83,0,0,1,159,59.17c.37-1,.74-2,1.1-3a38.46,38.46,0,0,1,4-8.21,23.77,23.77,0,0,0,1.6-3.1A17.09,17.09,0,0,1,168.62,40a8.82,8.82,0,0,0,1.66-3.23,2.51,2.51,0,0,0,.15-.6h0l-.35,0a1.52,1.52,0,0,1-1.1-.57,2.59,2.59,0,0,1-.22-2.11c0-.19.07-.39.08-.57a1,1,0,0,1,1-.93h3.76a92,92,0,0,1,10.55-13,13.84,13.84,0,0,1,8.37-4.66h.14a1,1,0,0,1,.71.3,2,2,0,0,1,.67,1.86A2.47,2.47,0,0,1,192.55,18c-4.06,1.82-6.76,5.16-9.18,8.44a22.9,22.9,0,0,1-2,2.25,14.48,14.48,0,0,0-2.44,3c1.2.08,2.52.12,4.14.12l2.66,0,2.71,0c1.34,0,2.45,0,3.49.08a1,1,0,0,1,.85.57,1,1,0,0,1-.09,1l-.1.14c-1,1.43-1.3,1.81-2.69,1.82H177a11.72,11.72,0,0,0-3.42,4.46c-.44.81-.89,1.65-1.42,2.44a87.06,87.06,0,0,0-6.77,12.66,95.56,95.56,0,0,0-5.29,14.9,24.74,24.74,0,0,0-.55,7c0,1.21,0,2.46,0,3.71a3.74,3.74,0,0,0,2,3.18l.51.32a3.69,3.69,0,0,0,1.68.76c.19,0,.5,0,.94-.54a1,1,0,0,1,.64-.34c4.29-.45,7.6-2.76,11.25-6.09a37.14,37.14,0,0,0,8.22-10.66,6.17,6.17,0,0,0,.81-3.15c-.11-2.19-.48-2.19-.81-2.19a6.68,6.68,0,0,0-2,.52,3.18,3.18,0,0,1-1.16.28,1.61,1.61,0,0,1-1.38-.77,2,2,0,0,1,.57-2.69.52.52,0,0,0,.1-.11,2,2,0,0,1,.68-.56,4.3,4.3,0,0,1,.79-.26c0-.27,0-.55,0-.83,0-1.23,0-2.5,0-3.74a3.38,3.38,0,0,1,.19-1.41,9.78,9.78,0,0,1-.74.68,6.77,6.77,0,0,1-1.13.71,4.85,4.85,0,0,0-.79.47,10.84,10.84,0,0,0-1.57,1.56,17,17,0,0,1-7.6,5.3,1.12,1.12,0,0,1-.31,0,1,1,0,0,1-.72-.3c-2.79-2.84-3-4.45-1-8.63s3.95-7.94,7-11.07a1,1,0,0,0,.14-.4,2.33,2.33,0,0,1,.73-1.35,1,1,0,0,1,.56-.24l.37,0c.4,0,.8-.08,1.19-.08a4.33,4.33,0,0,1,1.54.25,1.49,1.49,0,0,1,.3.18,1.24,1.24,0,0,1,.16,1.82l-.06.1c-1.19,1.85-2.36,3.72-3.53,5.58s-2.2,3.49-3.31,5.22A8.49,8.49,0,0,0,172.35,56a33.58,33.58,0,0,0,7.26-6c2-2,3.94-4,5.84-5.85l2.39-2.38a1,1,0,0,1,.64-.29h.21a2.56,2.56,0,0,1,2,.89,1.9,1.9,0,0,0,.26.22,1,1,0,0,1,.61.5,1,1,0,0,1,.06.8,49.12,49.12,0,0,1-3,6.3,54,54,0,0,0-2.6,5.46,3.35,3.35,0,0,0,.55.06h.14a5.77,5.77,0,0,0,.53-.94c2-3.92,9.94-11.38,14.18-13.29a9.88,9.88,0,0,1,4.09-.7,11.5,11.5,0,0,0,1.69-.09l1.84-2.92-.23-.14c-1.09-.83-2.52-2.13-2.41-3.79s1.7-2.78,2.88-3.46c.26-.15.52-.33.79-.52a4.78,4.78,0,0,1,2.59-1.13h.26c1.43,0,2.15-1,3-2.31A85.4,85.4,0,0,1,230.11,9.93a39.06,39.06,0,0,1,15-8.33,15.28,15.28,0,0,1,4.52-.6,42.9,42.9,0,0,1,5,.38A14.64,14.64,0,0,1,261.33,4c2.19,1.6,4.73,3.92,4.91,7.66a2,2,0,0,0,.29.75,3.1,3.1,0,0,1,.27,2.93c-.34.77-.61,1.57-.89,2.41a12.54,12.54,0,0,1-3,5.61,33.86,33.86,0,0,1-10.49,6.6c-2.28,1-4.62,1.82-6.89,2.63-2.08.74-4.23,1.51-6.29,2.37a4.8,4.8,0,0,1-2,.29c-.91,0-1.24,0-1.51.49a1,1,0,0,1-.77.47,67.67,67.67,0,0,0-7.26,1.13l-2,.38a15.75,15.75,0,0,1-2.91.23c-.76,0-1.52,0-2.28-.06l-1.6-.06-.15.27c-.86,1.67-1.92,3.74-4.61,3.74a6.15,6.15,0,0,1-.93-.08,1.05,1.05,0,0,1-.55-.29,3.92,3.92,0,0,1-.27-.33l-.35.57c-.83,1.37-1.61,2.67-2.33,4a52.23,52.23,0,0,0-3,7.21l-.46,1.25a4.59,4.59,0,0,0,.47,4.67,1,1,0,0,1,0,1.29,2.41,2.41,0,0,1-2,.93h-.45a.92.92,0,0,1-.42.1,1,1,0,0,1-.79-.43c-1.89-2.62-1.91-3.47.05-9.82l-.52.51a63,63,0,0,1-6.9,6.18,15.94,15.94,0,0,1-2.56,1.48,19.49,19.49,0,0,0-1.76,1,3.07,3.07,0,0,1-1.63.43,3.67,3.67,0,0,1-1.67-.4l.24.29a6.56,6.56,0,0,1,1,1.33,5.86,5.86,0,0,1,.59,3.57,15.42,15.42,0,0,1-.88,3c-.11.3-.23.6-.33.9a6.3,6.3,0,0,1-.35.82c-2.36,4.3-11.63,14.35-19.1,17.19A11.67,11.67,0,0,1,165,87.92Zm38.63-43.19a3.66,3.66,0,0,0-2.39.81,61.46,61.46,0,0,0-7.43,7.51c-.32.37-.88,1-.82,1.53a.36.36,0,0,0,0,.1,62,62,0,0,0,8.9-7.94l2-2Zm12-9.88a4.48,4.48,0,0,0,1,.11,12.14,12.14,0,0,0,2.71-.44,13.28,13.28,0,0,1,3.12-.48,6.45,6.45,0,0,1,.76,0,5.53,5.53,0,0,0,.71,0,14.57,14.57,0,0,0,3.12-.47,16.79,16.79,0,0,1,3.52-.5c.32,0,.63,0,.93.05l3.05-1A136.2,136.2,0,0,0,248,27.33,48.44,48.44,0,0,0,253.91,24l.74-.46c3-1.87,6.06-4,7.33-7.73,1.08-3.15.72-5.52-1.15-7.45-2.22-2.3-5.07-3.18-8.57-4.08a5.15,5.15,0,0,0-1.3-.17,11.32,11.32,0,0,0-2.13.28c-.42.08-.84.17-1.29.23-5.58.79-9.85,4.07-12.95,6.83a83.4,83.4,0,0,0-11.34,11.86,127.9,127.9,0,0,0-7.72,11.52Zm-4.49-1.05.27,0c.16,0,.34-.23.58-.73A3.44,3.44,0,0,0,211.18,33.8Z"/><path class="cls-2" d="M249.68,2a39.64,39.64,0,0,1,4.89.38,13.59,13.59,0,0,1,6.17,2.39c2.24,1.65,4.35,3.72,4.5,6.91.05,1.09,1.27,1.86.65,3.22-1.17,2.6-1.46,5.57-3.7,7.71A33.15,33.15,0,0,1,252,29c-4.35,1.88-8.86,3.18-13.18,5-1.31.55-3-.36-3.93,1.18a90.24,90.24,0,0,0-9.38,1.52,15.47,15.47,0,0,1-2.73.21c-1.49,0-3-.13-4.48-.13-1,1.82-1.72,4-4.16,4a4.4,4.4,0,0,1-.77-.07c-.73-.74,0-1.61-.49-2.42.94,0,1.32-.61,1.71-1.3a2.21,2.21,0,0,0-.84-.21c-.73,0-.78.74-.87,1.51-1.39,2.42-2.82,4.61-4,6.91a64.26,64.26,0,0,0-3.51,8.59c-.69,1.92-.76,4,.65,5.66a1.4,1.4,0,0,1-1.21.57h-.35a1.2,1.2,0,0,0-.5.09c-1.84-2.55-1.71-2.85,1.08-11.75a.71.71,0,0,0-.45-.24c-.33,0-.48.49-.68.67a90.36,90.36,0,0,1-8.72,8c-1.34,1-2.89,1.51-4.27,2.38a2.09,2.09,0,0,1-1.09.28,2.73,2.73,0,0,1-1.85-.73.34.34,0,0,0-.25-.13c-.33,0-.53.69-1.08.84.32,1.09,1.34,1.72,1.8,2.68a4.9,4.9,0,0,1,.51,3,23.8,23.8,0,0,1-1.17,3.71,5.65,5.65,0,0,1-.29.67C185,73.89,175.9,83.53,168.88,86.21a10.91,10.91,0,0,1-3.85.71,9.16,9.16,0,0,1-8.45-5c-.11-.23-.52-.4-.51-.58.32-3.66-.33-7.3.46-11,1-4.79,2.89-9.27,4.5-13.82a38.07,38.07,0,0,1,3.89-8c1.66-2.52,2.3-5.56,4.43-7.83a9.59,9.59,0,0,0,1.88-3.61c.22-.65.6-1.81-1.08-2-.88-.07-.38-1.3-.32-2.18h4.3a91.16,91.16,0,0,1,10.74-13.37,12.94,12.94,0,0,1,7.78-4.35c.9.92.13,1.62-.5,1.9-4.18,1.87-6.94,5.18-9.58,8.75-1.38,1.87-3.36,3.26-4.52,5.36a2.39,2.39,0,0,0-.32,1.37,49.9,49.9,0,0,0,5.33.23c1.79,0,3.58,0,5.38,0,1.14,0,2.29,0,3.44.08-1.08,1.49-1.08,1.53-2,1.54H176.7c-2.8,1.73-3.69,4.84-5.38,7.34a87.5,87.5,0,0,0-6.85,12.81,96.06,96.06,0,0,0-5.34,15c-1,3.71-.41,7.31-.62,10.94A4.69,4.69,0,0,0,161,84.61a5.81,5.81,0,0,0,2.71,1.23,2.22,2.22,0,0,0,1.69-.88c4.8-.5,8.41-3.24,11.81-6.35a38,38,0,0,0,8.45-11A7.24,7.24,0,0,0,186.6,64c-.12-2.18-.52-3.14-1.81-3.14a7.4,7.4,0,0,0-2.39.58,2.53,2.53,0,0,1-.81.22.63.63,0,0,1-.55-.32,1,1,0,0,1,.37-1.36c.2-.17.35-.44.58-.55a10.16,10.16,0,0,1,1.35-.37c0-1.75.1-3.6,0-5.43s1.74-2.77,1.63-4.67c-1,0-1.27.85-1.78,1.28-.72.6-1.3,1.37-2,2-.57.47-1.32.71-1.91,1.17a13.64,13.64,0,0,0-1.71,1.69,16.09,16.09,0,0,1-7.15,5c-2.45-2.49-2.63-3.65-.78-7.5s3.79-7.69,6.82-10.8c.52-.53.3-1.26.81-1.69.49,0,1-.11,1.47-.11a3.41,3.41,0,0,1,1.19.19c.26.23.09.34-.09.62-2.3,3.59-4.54,7.21-6.84,10.8a8.88,8.88,0,0,0-1.58,6c3.59-1.64,6.3-4.23,8.95-6.92,2.8-2.83,5.62-5.63,8.22-8.22h.15c1.1,0,1.23.86,1.94,1.07-1.61,4.5-4.45,8.37-5.94,12.88a11.82,11.82,0,0,0,1.89.28c.78,0,1-.38,1.57-1.5,1.82-3.6,9.55-11,13.7-12.83,2.07-.94,4.09-.38,6-.79l2.68-4.24c0-.41-.21-.48-.44-.48l-.36,0a.39.39,0,0,1-.27-.07c-2.82-2.14-2.7-3.82.36-5.58,1-.55,1.94-1.52,2.88-1.52h.26c2.07,0,3.07-1.53,3.86-2.77a85.23,85.23,0,0,1,14-16.23,37.69,37.69,0,0,1,14.66-8.11A14.29,14.29,0,0,1,249.68,2M214.63,35.85c.2,0,.41,0,.6,0a.9.9,0,0,1,.23,0,5.43,5.43,0,0,0,1.2.12c2,0,3.88-.91,5.83-.91.22,0,.43,0,.65,0a7.37,7.37,0,0,0,.82,0c2.26,0,4.4-1,6.64-1a7.23,7.23,0,0,1,1,.07c5.63-1.86,11.32-3.55,16.76-6a57,57,0,0,0,6.79-3.86c3.19-2,6.37-4.24,7.75-8.25,1.12-3.26.92-6.09-1.38-8.47-2.49-2.58-5.68-3.49-9-4.36a6.22,6.22,0,0,0-1.55-.2,24.45,24.45,0,0,0-3.56.52c-5.39.76-9.67,3.68-13.48,7.08a83.57,83.57,0,0,0-11.47,12A129.5,129.5,0,0,0,214,35.54a.81.81,0,0,0,.68.31m-.58-5.12c-1.92,1.33-3.86,1.7-4.25,3.78a7.7,7.7,0,0,0,1.65.31c1.06,0,1.39-.89,2.6-4.09M192.86,56c5-3.24,8.78-7.71,13.09-11.84a6.65,6.65,0,0,0-2.29-.43,4.68,4.68,0,0,0-3,1,62.63,62.63,0,0,0-7.55,7.64c-.53.63-2,2.25-.21,3.59M249.68,0a16,16,0,0,0-4.82.65A39.83,39.83,0,0,0,229.43,9.2a86.7,86.7,0,0,0-14.32,16.62c-.81,1.26-1.29,1.85-2.18,1.85h-.26A5.66,5.66,0,0,0,209.5,29c-.26.18-.5.35-.7.47-.8.46-3.24,1.86-3.39,4.26-.13,2,1.36,3.47,2.3,4.25l-1.09,1.73c-.35,0-.73,0-1.12,0a10.78,10.78,0,0,0-4.48.79c-2.92,1.31-7.37,5-10.69,8.55a42.31,42.31,0,0,0,2.19-4.88,2,2,0,0,0-.11-1.59,1.93,1.93,0,0,0-1-.94l-.05,0a3.57,3.57,0,0,0-2.66-1.17h-.28a2,2,0,0,0-1.28.58l-2.38,2.38c-1.91,1.9-3.89,3.87-5.85,5.86a44.67,44.67,0,0,1-4.81,4.36,9.58,9.58,0,0,1,.55-1c1.11-1.74,2.2-3.48,3.3-5.22s2.34-3.73,3.53-5.58l0,0a2.24,2.24,0,0,0-.33-3.17,1.89,1.89,0,0,0-.6-.35,5.17,5.17,0,0,0-1.89-.32c-.46,0-.88,0-1.29.08l-.36,0a1.94,1.94,0,0,0-1.12.47,3.24,3.24,0,0,0-1,1.87l0,.08c-.49.51-1,1-1.4,1.58.36-.59.69-1.19,1-1.77a11.59,11.59,0,0,1,2.87-3.94h12.59c1.89,0,2.43-.75,3.49-2.24l.1-.13A2,2,0,0,0,192,30.84c-1.06-.06-2.19-.08-3.55-.08l-2.72,0-2.66,0c-.82,0-1.57,0-2.26,0,.39-.46.83-.91,1.29-1.38A24.22,24.22,0,0,0,184.18,27c2.34-3.17,4.94-6.4,8.78-8.11a3.38,3.38,0,0,0,2-2.39,3,3,0,0,0-.94-2.74,2,2,0,0,0-1.42-.6,1.23,1.23,0,0,0-.27,0,14.77,14.77,0,0,0-9,5,93.59,93.59,0,0,0-10.37,12.74h-3.22a2,2,0,0,0-2,1.86c0,.11,0,.3-.07.47a3.51,3.51,0,0,0,.42,2.89,2.35,2.35,0,0,0,1,.76,7.21,7.21,0,0,1-1.28,2.4,17.8,17.8,0,0,0-3.12,5.14,21.08,21.08,0,0,1-1.53,3,39,39,0,0,0-4.1,8.42c-.36,1-.73,2-1.1,3a82,82,0,0,0-3.48,11.06,30.35,30.35,0,0,0-.43,7,39,39,0,0,1-.06,4.21,2.25,2.25,0,0,0,.84,1.92A11.15,11.15,0,0,0,165,88.92a12.78,12.78,0,0,0,4.56-.84c7.8-3,17.13-13.12,19.62-17.65a7.33,7.33,0,0,0,.41-1c.11-.29.22-.59.32-.88a16.35,16.35,0,0,0,.94-3.18,6.75,6.75,0,0,0-.6-4,4,4,0,0,0,1.66-.55,15.4,15.4,0,0,1,1.67-.9,17.4,17.4,0,0,0,2.72-1.57,49.53,49.53,0,0,0,4.81-4.14c-.86,3.48-.52,4.73,1.15,7a2,2,0,0,0,1.62.83,2,2,0,0,0,.59-.08h.26a3.38,3.38,0,0,0,2.75-1.29,2,2,0,0,0,0-2.58c-.75-.88-.84-2.11-.28-3.68.16-.42.31-.84.46-1.26a49.76,49.76,0,0,1,2.93-7.07c.64-1.19,1.33-2.35,2.06-3.56a1.8,1.8,0,0,0,.4.1,6,6,0,0,0,1.09.1c3.12,0,4.47-2.31,5.36-4l.95,0c.76,0,1.54.07,2.33.07a16.73,16.73,0,0,0,3.09-.25l2-.38a66,66,0,0,1,7.15-1.11,2,2,0,0,0,1.53-.93,4.72,4.72,0,0,1,.68,0,5.79,5.79,0,0,0,2.34-.36c2-.86,4.17-1.62,6.24-2.36,2.28-.81,4.64-1.65,6.95-2.65a34.78,34.78,0,0,0,10.78-6.8,13.52,13.52,0,0,0,3.29-6,23.78,23.78,0,0,1,.85-2.31,4.1,4.1,0,0,0-.29-3.81c-.07-.13-.16-.3-.19-.38-.21-4.14-3-6.65-5.31-8.38a15.58,15.58,0,0,0-7.1-2.77A42.66,42.66,0,0,0,249.68,0ZM217.24,33.92c2.07-3.37,4.35-6.73,6.81-10a81.8,81.8,0,0,1,11.2-11.71c3-2.67,7.12-5.84,12.43-6.59.48-.07.92-.16,1.35-.24A10.08,10.08,0,0,1,251,5.11a4.15,4.15,0,0,1,1,.14c3.34.86,6.06,1.69,8.1,3.81,1.62,1.67,1.9,3.6.93,6.43-1.17,3.41-3.94,5.35-6.92,7.2l-.73.46a48.15,48.15,0,0,1-5.82,3.27,134.67,134.67,0,0,1-13.29,4.84c-1,.3-1.91.61-2.86.93a7.5,7.5,0,0,0-.82,0,16.86,16.86,0,0,0-3.73.53,14.48,14.48,0,0,1-2.91.44,3.86,3.86,0,0,1-.6,0,8.12,8.12,0,0,0-.86,0,14.24,14.24,0,0,0-3.36.51,19.16,19.16,0,0,1-1.9.37ZM170.37,62.07A2,2,0,0,0,171,62a18.07,18.07,0,0,0,8-5.6A9.91,9.91,0,0,1,180.47,55a3.47,3.47,0,0,1,.64-.38l.24-.13c0,1,0,2,0,3v.11l-.22.09a3,3,0,0,0-1,.82l0,0a3,3,0,0,0-.72,4,2.62,2.62,0,0,0,2.22,1.22,3.89,3.89,0,0,0,1.44-.32l.07,0a8.31,8.31,0,0,1,1.37-.42,8.74,8.74,0,0,1,.14,1.21,5.21,5.21,0,0,1-.71,2.64,36.17,36.17,0,0,1-8,10.38c-3.5,3.19-6.65,5.41-10.67,5.83a2,2,0,0,0-1.29.67,1.32,1.32,0,0,1-.22.2,4.93,4.93,0,0,1-1.11-.6c-.18-.12-.36-.24-.54-.34a2.81,2.81,0,0,1-1.55-2.26c.07-1.29.05-2.56,0-3.79a23.66,23.66,0,0,1,.52-6.75,93.88,93.88,0,0,1,5.23-14.74l.36-.79c-.76,2.72-.06,4.51,2.29,6.9a2,2,0,0,0,1.43.6Z"/><path class="cls-1" d="M85,86.77A14.37,14.37,0,0,1,80.47,86a8.59,8.59,0,0,1-4.9-4.52,6,6,0,0,1-.65-3c0-2.08,0-4.17,0-6.23V70.7c-3-.77-3.94-2-4-5-.15-4.69,1.28-9.09,4.48-13.85.62-.92,1.2-1.9,1.77-2.88q-3.77,3.66-7.49,7.35c-1.33,1.3-2.83,2.51-4.82,2.51a4.31,4.31,0,0,1-.71,0h0c-.1,0-.28.15-.43.27a2.29,2.29,0,0,1-1.53.7,2.91,2.91,0,0,1-2,.85A5.61,5.61,0,0,1,55.41,56a3,3,0,0,1,.86-2,32.2,32.2,0,0,1,3.37-8.32c.68-1.31,1.37-2.65,2-4a1,1,0,0,1,.92-.61H64.2a1,1,0,0,1,.81.42l.09.11a2,2,0,0,1,.47.78,5.27,5.27,0,0,1-.78,4.06A5.31,5.31,0,0,0,64.15,48a10.16,10.16,0,0,1-3,6.06c-1,1-1.23,1.45-1.17,2l.51,0a4.2,4.2,0,0,0,3.93-2.4,44.08,44.08,0,0,1,3.88-6.06c1-1.38,2-2.81,2.89-4.28a3,3,0,0,1,2.65-1.52,4.75,4.75,0,0,1,1.54.28,1,1,0,0,1,.64.7,1,1,0,0,1-.22.91,23.17,23.17,0,0,0-2.1,2.93c-.27.44-.56.89-.86,1.33.89-.79,1.84-1.53,2.76-2.25l1.4-1.1a17.37,17.37,0,0,1,5.27-2.7,1.68,1.68,0,0,1,.6-.1,4.72,4.72,0,0,1,.69.08l.41.07a1,1,0,0,1,.9,1,7.25,7.25,0,0,1-2.12,4.74,12.77,12.77,0,0,0-1,1.28,70.39,70.39,0,0,0-5.56,11,4.13,4.13,0,0,0-.16,1.54,5,5,0,0,1-.61,2.87l.21.45a4.21,4.21,0,0,0,.56,1,2.12,2.12,0,0,0,.32-.62,94.05,94.05,0,0,1,4.92-12.76l1-2c1.22-2.52,2.49-5.14,3.84-7.66.59-1.09,1.25-2.14,1.89-3.16s1.21-1.91,1.74-2.88a3.56,3.56,0,0,0,.37-.84,1.74,1.74,0,0,0-.57-.16c-.91-.15-1.3-.86-1.16-2.09a3.73,3.73,0,0,0,0-.42,1,1,0,0,1,.4-1.08l.12-.1a1.62,1.62,0,0,1,1-.49c3.75-.09,3.75-.09,5.72-3a65.64,65.64,0,0,1,10.73-12.06,10,10,0,0,1,4.25-1.91c.6-.16,1.23-.33,1.86-.55a1,1,0,0,1,.33-.06,1,1,0,0,1,.64.23,1,1,0,0,1,.35.92c-.41,2.7-2.28,3.52-3.78,4.18a4.54,4.54,0,0,0-2,1.27,29.41,29.41,0,0,1-3.17,3.67c-.77.8-1.57,1.63-2.27,2.49l-1,1.2a42.06,42.06,0,0,0-2.77,3.55h13.14a1,1,0,0,1,.84.47,1,1,0,0,1,.06,1,3.36,3.36,0,0,1-3.34,2.25c-2.09,0-4.1,0-6.15,0H96.59a110,110,0,0,0-15.71,30.5c3.76-2.3,6.63-4.48,8.47-7.73a3.78,3.78,0,0,0-.56-.57c-.31-.27-1.05-.92-.57-1.74a3.69,3.69,0,0,0,.34-2,6.6,6.6,0,0,1,.25-2.16A26.28,26.28,0,0,1,100,37.25a8.52,8.52,0,0,1,1.56-.67,6.92,6.92,0,0,1,2.24-.41,4.9,4.9,0,0,1,2.33.57,2.9,2.9,0,0,1,1.39,3.1,5.09,5.09,0,0,0,0,.55c0,.28,0,.57,0,.86v.41a1,1,0,0,1-.4.8,8.75,8.75,0,0,0-1.09,1c-.21.22-.42.45-.65.67h.42c1.59,0,3.17-.58,7.11-2.31a1,1,0,0,1,1.08.18l1.13,1.05a1,1,0,0,1,.29,1,4.56,4.56,0,0,1-.18.52l.29-.23c.44-.37.89-.72,1.31-1.09a6.76,6.76,0,0,1,4.91-1.47l1,0h0a1,1,0,0,1,1,1.18l0,.1c-.22,1.2-.52,2.83-2.11,2.83a2.66,2.66,0,0,1-1.1-.26l-1.34.74a24.38,24.38,0,0,0-4.7,3.06,35.57,35.57,0,0,0-6.66,8,3.77,3.77,0,0,1-.72.83,5.62,5.62,0,0,1,1.58,1.5,6.81,6.81,0,0,1,.91,6.2,20.32,20.32,0,0,1-6.92,9.82,20,20,0,0,0-3.35,3.36c-2.37,2.91-5.68,5.1-10.43,6.9A10.75,10.75,0,0,1,85,86.77Zm-5.84-13.4c0,2.06,0,4.1,0,6.14a4.42,4.42,0,0,0,3,4.44c.22.1.43.22.64.33a1.83,1.83,0,0,0,.83.34c2.46-.33,9.16-3.47,11.19-5.44l1.52-1.46a32.51,32.51,0,0,0,6.19-7.08c.22-.4.46-.79.7-1.18,1.2-2,2.35-3.89,2.09-6.23-.14-1.31-.26-1.41-1.85-1.62a2.12,2.12,0,0,0-.41.29,2.38,2.38,0,0,1-1.53.69A2.14,2.14,0,0,1,100,61.9a1,1,0,0,1-.3-.8s0-.1,0-.17a1.73,1.73,0,0,1,.43-1.47c3.08-2.76,4.84-6.32,6.7-10.1l.48-1a2,2,0,0,0,.33-1.11h-5.74c-1.72,0-3.44,0-5.16,0h0a1.84,1.84,0,0,0-1.73,1c-2,2.75-2.67,5-2.14,7.44a3.3,3.3,0,0,1,1,.59,1.6,1.6,0,0,0,.43.27,2,2,0,0,1,.25-.2A2.82,2.82,0,0,1,96,55.63a10.23,10.23,0,0,0,2.66-.85l1-.39a4.38,4.38,0,0,1,1.48-.32,2.89,2.89,0,0,1,1.71.58,1,1,0,0,1,.4.66,1,1,0,0,1-.19.76,7.36,7.36,0,0,1-3.2,2.14,8.13,8.13,0,0,0-1.74.9,5.85,5.85,0,0,1-3.35,1.16,4,4,0,0,1-1.68-.35,2.15,2.15,0,0,0-.76-.24h0a2.22,2.22,0,0,0-.42.65,20.16,20.16,0,0,1-7,7.62,21.22,21.22,0,0,1-2.4,1.26,14.34,14.34,0,0,0-3.31,1.93Zm24-32.73A13.55,13.55,0,0,0,100,43.12l.88-.36a4.33,4.33,0,0,0,2.39-2Z"/><path class="cls-2" d="M113.09,14.94h0m0,0c-.53,3.57-4.17,3-5.6,5s-3.67,4-5.4,6.1a45.54,45.54,0,0,0-4.8,6.38h14.95a2.4,2.4,0,0,1-2.44,1.68h-.07c-2,0-4,0-6.1,0H96.08a111.15,111.15,0,0,0-17,33.71c4.8-2.81,9-5.38,11.31-9.85-.14-1-1.51-1.63-1.36-1.89.83-1.4.21-2.95.68-4.32A25.19,25.19,0,0,1,100.55,38.1a7.11,7.11,0,0,1,1.35-.57,5.82,5.82,0,0,1,1.92-.36,3.86,3.86,0,0,1,1.85.45c1.2.64.83,1.8.86,2.81,0,.39,0,.79,0,1.23-1.31,1-2.11,2.63-3.93,3a13.28,13.28,0,0,0,3.21.5c1.81,0,3.59-.67,7.51-2.4l1.13,1c-.4,1.46-1.59,2.44-2.28,3.89v-.18a4.62,4.62,0,0,0-.62.23c-.21.13-.16.37.16.46,0,0,0,0,0,0s.3-.24.44-.52h0A3.44,3.44,0,0,0,114,47c1.11-1,2.38-2,3.51-2.95,1.71-1.46,3.27-1.17,5.28-1.25-.22,1.17-.37,2.11-1.15,2.11a2.33,2.33,0,0,1-1.12-.4c-2.27,1.33-4.71,2.42-6.68,4.19A36.4,36.4,0,0,0,107,57a10.7,10.7,0,0,1-1.45,1.45,9.85,9.85,0,0,1,2.32,1.94,5.79,5.79,0,0,1,.8,5.33A19.21,19.21,0,0,1,102.07,75a21.05,21.05,0,0,0-3.53,3.53c-2.64,3.25-6.3,5.19-10,6.6a10,10,0,0,1-3.52.6,13.59,13.59,0,0,1-4.23-.7,7.8,7.8,0,0,1-4.33-4,5.12,5.12,0,0,1-.53-2.55c0-2.87,0-5.74,0-8.56-3.27-.69-4-1.49-4-4.27-.16-4.93,1.59-9.22,4.31-13.26,1.33-2,2.45-4.12,3.66-6.18a1.48,1.48,0,0,0-.75-.23c-.62,0-1,.58-1.34,1q-4.43,4.31-8.82,8.65c-1.18,1.15-2.46,2.22-4.12,2.22a3.73,3.73,0,0,1-.57,0h-.17c-.85,0-1.2,1-1.93,1a1,1,0,0,1-.37-.08,2.07,2.07,0,0,1-1.66.93,3.76,3.76,0,0,1-2.34-1.21c-.81-.78-2.26-2.38-.58-3.92C58,49.9,60.74,46.14,62.51,42H64.2a2.09,2.09,0,0,1,.41.59c.6,2-1.21,3.52-1.45,5.2a9.16,9.16,0,0,1-2.66,5.47c-1.66,1.55-1.65,2.37-1.32,3.63a7,7,0,0,0,1.34.13,5.2,5.2,0,0,0,4.82-2.95c1.86-3.71,4.66-6.75,6.74-10.28a2,2,0,0,1,1.79-1,3.61,3.61,0,0,1,1.21.23c-1.85,2.06-2.84,4.61-4.79,6.54-.18.17-.06.65,0,1.16a3,3,0,0,0-.62.22c-.21.13-.16.37.15.47h0c.12,0,.3-.24.45-.52v0h0c.5-.28,1,.06,1.5-.45a46.71,46.71,0,0,1,5.89-5.07,16.47,16.47,0,0,1,5-2.54.71.71,0,0,1,.26,0c.28,0,.61.1,1,.14,0,2.4-1.85,3.79-2.92,5.47a73.28,73.28,0,0,0-5.63,11.15c-.63,1.51.33,3.36-1.06,4.71.65.91.72,2.17,2.11,2.92a4.26,4.26,0,0,0,1.14-1.69,92.66,92.66,0,0,1,4.87-12.62c1.58-3.22,3.11-6.47,4.8-9.63,1.11-2.06,2.51-4,3.63-6,.52-.95,1.1-2.13-.92-2.46-.69-.11-.15-1.18-.33-1.78.22-.15.42-.4.63-.41,4.25-.1,4.26-.09,6.53-3.46a64.14,64.14,0,0,1,10.57-11.87c1.45-1.3,3.55-1.5,5.77-2.27M98.73,44.38a6,6,0,0,0,2.54-.7,4.77,4.77,0,0,0,3-3l-.59-1.39c-2.77,1.09-4.43,3.14-6.29,4.95a8.56,8.56,0,0,0,1.29.12M92.08,56.57h.15c.77,0,1.19.76,1.87.93l.24,0c.68,0,1-.81,1.82-.9A16.31,16.31,0,0,0,100,55.33a3.09,3.09,0,0,1,1.12-.26,1.84,1.84,0,0,1,1.12.39C101,57,99,57.21,97.51,58.3a4.74,4.74,0,0,1-2.75,1A3,3,0,0,1,93.49,59a3,3,0,0,0-1.17-.33c-.57,0-.9.39-1.33,1.17a19.12,19.12,0,0,1-6.64,7.26c-1.91,1.22-4.18,1.75-6.17,3.57,0,3,0,5.91,0,8.84a5.43,5.43,0,0,0,3.55,5.35,4.77,4.77,0,0,0,1.88.75l.22,0c2.61-.35,9.53-3.63,11.66-5.7,2.83-2.75,5.92-5.33,7.88-8.77,1.4-2.44,3.27-4.83,2.93-8-.21-1.9-.82-2.25-2.72-2.5h-.13c-.8,0-1.25,1-1.94,1a1.18,1.18,0,0,1-.8-.41c0-.28-.09-.8.1-1,3.5-3.13,5.38-7.28,7.41-11.37a2.4,2.4,0,0,0,.12-2.56H101.9c-1.71,0-3.42,0-5.13,0h-.09a2.78,2.78,0,0,0-2.47,1.39c-2,2.7-3.14,5.54-2.13,8.94m20.16-24.12h0m10.53,10.36h0m-10.6,4.91h0m-41.91,3v.18h0v-.17h0m42.83-37.76H113a2,2,0,0,0-.6.13c-.58.2-1.18.36-1.76.52A10.81,10.81,0,0,0,106,15.72,66.21,66.21,0,0,0,95.09,28a9.69,9.69,0,0,1-1.79,2.3,10.58,10.58,0,0,1-3.09.28,2.6,2.6,0,0,0-1.71.73l-.07.05a2,2,0,0,0-.81,2,1.1,1.1,0,0,1,0,.18c-.21,1.89.64,2.67,1.34,3-.48.85-1,1.69-1.56,2.56s-1.19,1.88-1.74,2.87a2,2,0,0,0-1.55-1l-.32,0a5.09,5.09,0,0,0-.87-.1,2.65,2.65,0,0,0-.94.16,19.58,19.58,0,0,0-4.9,2.37,2.15,2.15,0,0,0,0-.8,2,2,0,0,0-1.28-1.39,5.62,5.62,0,0,0-1.87-.34,4,4,0,0,0-3.51,2c-.84,1.43-1.81,2.78-2.84,4.2a47.22,47.22,0,0,0-4,6.2,3.15,3.15,0,0,1-1.8,1.65l.11-.1a11.13,11.13,0,0,0,3.28-6.64,4.85,4.85,0,0,1,.53-1.25A6.11,6.11,0,0,0,66.53,42a3.33,3.33,0,0,0-.66-1.14l-.06-.06A1.94,1.94,0,0,0,64.2,40H62.51a2,2,0,0,0-1.84,1.21c-.56,1.31-1.22,2.58-1.92,3.92a34.54,34.54,0,0,0-3.41,8.33,4,4,0,0,0-.93,2.46,5.58,5.58,0,0,0,2,3.86,5.45,5.45,0,0,0,3.73,1.77,3.83,3.83,0,0,0,2.44-.88,3.51,3.51,0,0,0,1.77-.9h0a3.85,3.85,0,0,0,.48,0c2.35,0,4-1.34,5.52-2.8l2-2A22.22,22.22,0,0,0,69.87,65.7c.1,3.21,1.15,4.82,4,5.75v.8c0,2,0,4.15,0,6.25A7.08,7.08,0,0,0,74.69,82a9.63,9.63,0,0,0,5.46,5,15.53,15.53,0,0,0,4.86.81A12,12,0,0,0,89.24,87c4.92-1.87,8.37-4.16,10.85-7.21a19.3,19.3,0,0,1,3.2-3.2,21.29,21.29,0,0,0,7.24-10.29,7.72,7.72,0,0,0-1-7.06,5.1,5.1,0,0,0-1-1.09l.12-.18a34.3,34.3,0,0,1,6.47-7.81,24.29,24.29,0,0,1,4.51-2.92l1-.52a3.32,3.32,0,0,0,1,.16c2.42,0,2.88-2.46,3.09-3.64h0a1.76,1.76,0,0,0,.06-.46,2,2,0,0,0-2-2h-.1l-.93,0a7.61,7.61,0,0,0-5.55,1.72l-.13.1a1.62,1.62,0,0,0-.25-.28l-.57-.53-.55-.52a2,2,0,0,0-1.37-.54,2.1,2.1,0,0,0-.81.17c-1.89.84-3.23,1.4-4.27,1.75a2,2,0,0,0,.29-1v-.4c0-.31,0-.6,0-.9a3.73,3.73,0,0,1,0-.47A4,4,0,0,0,107,36.1l2.69,0h.09A4.31,4.31,0,0,0,114,33.4a1.92,1.92,0,0,0,.24-.95,2,2,0,0,0-2-2H101.07c.51-.65,1-1.27,1.57-1.91.34-.4.67-.8,1-1.21.68-.83,1.43-1.6,2.22-2.42a31.88,31.88,0,0,0,3.28-3.8,4.06,4.06,0,0,1,1.56-.93c1.53-.67,3.82-1.67,4.35-4.82a2,2,0,0,0-2-2.42Zm0,4Zm-16,19.17h3a3.91,3.91,0,0,0-.57.31,27.65,27.65,0,0,0-6,5q1.69-2.65,3.57-5.25ZM93.77,55c-.27-1.94.38-3.84,2.06-6.14.41-.57.53-.57.85-.57,1.55,0,3.2,0,5.22,0h4.36l-.32.65c-.83,1.69-1.65,3.34-2.56,4.88a3.89,3.89,0,0,0-2.25-.73,5.08,5.08,0,0,0-1.84.39l-1,.4a10.34,10.34,0,0,1-2.39.78,3.41,3.41,0,0,0-1.63.65,4.89,4.89,0,0,0-.53-.34Zm-11,8.25a109.79,109.79,0,0,1,5-11.63,8.81,8.81,0,0,0-.17,2,3,3,0,0,1-.2,1.46c-.33.57-.68,1.7.73,3a18.78,18.78,0,0,1-5.32,5.17Zm12-1.93a6.72,6.72,0,0,0,3.95-1.36l.08-.06A3.73,3.73,0,0,0,98.71,61v.09a2,2,0,0,0,.61,1.54,3.15,3.15,0,0,0,2.19,1,3.35,3.35,0,0,0,2.17-.92h0c.26,0,.42.08.51.1a3.19,3.19,0,0,1,.1.58c.22,2-.79,3.67-2,5.6-.24.4-.48.8-.71,1.2a31.46,31.46,0,0,1-6,6.86c-.52.48-1,1-1.54,1.46-1.82,1.77-8.25,4.8-10.46,5.15l-.37-.2c-.21-.11-.45-.25-.73-.37a3.47,3.47,0,0,1-2.36-3.53q0-3.06,0-6.13V71.62a16.12,16.12,0,0,1,2.74-1.51,22.49,22.49,0,0,0,2.51-1.32,21,21,0,0,0,7.29-7.93,5.13,5.13,0,0,0,2,.41Z"/><path class="cls-1" d="M41.87,61.06c-.49,0-1,0-1.47-.06s-.88,0-1.32,0c-2.17,0-4.1-3.42-4.3-5.63-.27-3.12.92-8.21,2-11.62.22-.67.46-1.33.7-2l.06-.14a6.12,6.12,0,0,0-1.69,2.23,4.62,4.62,0,0,1-1.53,1.78l-.08.08A30,30,0,0,0,30,50.3a36.54,36.54,0,0,1-3.9,4.41,11.27,11.27,0,0,0-3,3.89A3.35,3.35,0,0,1,19.77,61c-.36,0-.74,0-1.15-.07l-.78-.06a1,1,0,0,1-.81-.48,1,1,0,0,1-.05-.93c.32-.71.6-1.4.87-2.07a19.55,19.55,0,0,1,2-4.07,73,73,0,0,0,6.07-11.19c1.22-2.61,2.48-5.31,3.94-7.86a11.42,11.42,0,0,0,.68-1.72,14.87,14.87,0,0,1,.6-1.63A8.51,8.51,0,0,0,32,27.58c0-.21,0-.41.07-.62a5,5,0,0,0-.29-3.19,1.94,1.94,0,0,0-2.07-1.34h-.39A13.8,13.8,0,0,0,23.61,24c-6.7,3-11.4,6.07-15.25,9.83a7.71,7.71,0,0,0-1.13,1.56,8.1,8.1,0,0,1-1.72,2.18,2.28,2.28,0,0,0-.06.53A2.83,2.83,0,0,1,5,39.7l.5.86H7.25a1,1,0,0,1,.56.17,1.61,1.61,0,0,1,.76,1,1.35,1.35,0,0,1-.38,1.09A3.45,3.45,0,0,1,5.42,44.3a3.9,3.9,0,0,1-2.09-.64,5.66,5.66,0,0,1-2.19-3.51,3.93,3.93,0,0,1,.34-3c.34-.52.65-1.06,1-1.63a16.45,16.45,0,0,1,2.2-3.27,49.07,49.07,0,0,1,17.67-11.8,20,20,0,0,1,5.27-1.51,13,13,0,0,1,1.6-.11c2.48,0,3.76,1.2,6.43,3.93a1.06,1.06,0,0,1,.27.55c.65,4.48-.85,8.34-2.3,12.08-.26.69-.53,1.37-.78,2.06a78.47,78.47,0,0,1-3.41,7.93,10.43,10.43,0,0,1,1.06-1,33.65,33.65,0,0,0,4.22-4.65,36.47,36.47,0,0,1,4.54-5,2.6,2.6,0,0,0,.51-.86,3.44,3.44,0,0,1,1.81-2.07.65.65,0,0,1,.21-.06,3,3,0,0,1,.41,0,2.6,2.6,0,0,1,2.52,2.09l.06.48a5.29,5.29,0,0,1-.56,4A19.2,19.2,0,0,0,42.75,41c-.27.59-.54,1.18-.83,1.75A25.27,25.27,0,0,0,39.2,56.28,1.73,1.73,0,0,0,41,58a2.43,2.43,0,0,0,.94-.19c4.64-1.8,8-5.5,11.18-9.07l.09-.11c.48-.53,1-1.15,1.45-1.81.28-.38.57-.76.86-1.13L56,45.1a15.58,15.58,0,0,0,1.7-2.37c.29-.54.59-1.08.89-1.62a29.66,29.66,0,0,0,3.21-7.2c.5-2,.86-4.42-.18-6.59a4.11,4.11,0,0,1-.31-1.66v-.22a1.68,1.68,0,0,1,.44-1.26,1.62,1.62,0,0,1,1.2-.49h.15a2,2,0,0,1,1.41.62c1.23,1.6,1.4,6.43,1.32,8a19.24,19.24,0,0,1-.37,2.77l.2-.1a1.05,1.05,0,0,1,.24-.06l.36,0a2.47,2.47,0,0,1,2,1.12,2.91,2.91,0,0,0,.33.35,1,1,0,0,1,.36,1,5.19,5.19,0,0,1-4.39,4.42,3.11,3.11,0,0,1-.59.06,1.6,1.6,0,0,1-1.23-.49,37.59,37.59,0,0,1-5.17,7.76L56.2,50.64a38.88,38.88,0,0,1-4,4.34,26.63,26.63,0,0,1-2.53,1.91,18.13,18.13,0,0,0-2.85,2.25A6.4,6.4,0,0,1,41.87,61.06Z"/><path class="cls-2" d="M29.19,19.81c2,0,3,.82,5.71,3.63.73,5-1.41,9.24-3,13.64a73.38,73.38,0,0,1-5.69,12.1c-.18.29,0,.79,0,1.19H26.1c-.52,0-.77.27-.75,1h0c-.06,0-.22-.07-.19-.12l.21-.07c-.14,0-.2,0-.21.07a2.05,2.05,0,0,0-.41.16c-.21.13-.16.38.15.47h0c.11,0,.29-.24.44-.52h0c.56-.16.83-.43.81-1a5.88,5.88,0,0,0,3.08-2.9,6.54,6.54,0,0,1,1.87-2.4c3.32-2.85,5.44-6.78,8.76-9.61.89-.76.78-2.23,2.05-2.77l.24,0a1.65,1.65,0,0,1,1.53,1.21c.15,1.23.49,2.51-.35,3.79A48.89,48.89,0,0,0,41,42.31a26.11,26.11,0,0,0-2.82,14A2.72,2.72,0,0,0,41,59a3.62,3.62,0,0,0,1.31-.25C47.23,56.8,50.62,53,54,49.26c.8-.88,1.56-2,2.35-3a22.25,22.25,0,0,0,2.25-3.08c1.58-2.93,3.4-5.81,4.19-9.06.57-2.34.9-4.86-.25-7.25a4.14,4.14,0,0,1-.22-1.5.6.6,0,0,1,.64-.7H63a1.06,1.06,0,0,1,.69.23c.92,1.2,1.2,5.42,1.11,7.35a40,40,0,0,1-.92,5.43v-.18a3.79,3.79,0,0,0-.62.23c-.21.14-.16.38.15.48h0c.11,0,.3-.24.45-.53v0h0c1-.3,1.29-1.43,2.14-1.78l.21,0c.83,0,1.12.82,1.67,1.26a4.18,4.18,0,0,1-3.63,3.61,1.73,1.73,0,0,1-.37,0c-1.06,0-.53-1.43-1.31-1.63a38.18,38.18,0,0,1-5.84,9.25,61.37,61.37,0,0,1-5.23,5.81c-1.71,1.52-3.86,2.57-5.43,4.21a5.37,5.37,0,0,1-4.23,1.61C41,60.06,40,60,39.09,60c-1.43,0-3.14-2.77-3.31-4.72-.23-2.62.68-7.22,2-11.22.59-1.84,1.4-3.6,1.85-5.56-1.6,1.67-3.75,2.71-4.66,5a4.35,4.35,0,0,1-1.32,1.46c-3.17,2.62-5.15,6.31-8.19,9.08a12.31,12.31,0,0,0-3.21,4.26A2.37,2.37,0,0,1,19.77,60c-.57,0-1.2-.09-1.88-.13,1-2.21,1.61-4.3,2.79-6C24.89,48,27.17,41,30.75,34.78c.54-1,.84-2.41,1.32-3.41a9.54,9.54,0,0,0,1-3.69c.15-1.46.47-2.79-.33-4.36a2.9,2.9,0,0,0-2.92-1.89h-.43A14.64,14.64,0,0,0,23.19,23a53,53,0,0,0-15.53,10c-1.14,1.11-1.57,2.67-2.79,3.68-.84.69.09,2.17-1.14,2.73l1.19,2.08H7.25c.49.33.35.44.13.73a2.46,2.46,0,0,1-2,1,3,3,0,0,1-1.56-.48C2.44,41.93,1.47,39,2.32,37.68c1-1.57,1.72-3.31,3.07-4.77A48,48,0,0,1,22.7,21.35a19.26,19.26,0,0,1,5-1.44,14.12,14.12,0,0,1,1.48-.1M63.89,37.7h0M29.19,17.81a15.08,15.08,0,0,0-1.72.12,20.73,20.73,0,0,0-5.54,1.57,50.12,50.12,0,0,0-18,12.05A17.51,17.51,0,0,0,1.57,35c-.31.56-.6,1.08-.93,1.58a5,5,0,0,0-.48,3.77A6.68,6.68,0,0,0,2.8,44.51a5,5,0,0,0,2.62.79,4.44,4.44,0,0,0,3.52-1.77,2.41,2.41,0,0,0,.62-1.91,2.59,2.59,0,0,0-1.2-1.72,2,2,0,0,0-1.11-.34H6.19a4.57,4.57,0,0,0,.26-1.47V38a10.14,10.14,0,0,0,1.62-2.16,6.73,6.73,0,0,1,1-1.36c3.77-3.68,8.38-6.65,15-9.64a12.84,12.84,0,0,1,5.32-1.43h.35c.77,0,.83,0,1.22.8a4.14,4.14,0,0,1,.19,2.61c0,.21-.05.42-.07.64a7.67,7.67,0,0,1-.77,3,15.13,15.13,0,0,0-.65,1.74,10.14,10.14,0,0,1-.6,1.54c-1.48,2.59-2.75,5.31-4,7.93a69.86,69.86,0,0,1-6,11A19.88,19.88,0,0,0,16.92,57c-.27.66-.54,1.35-.85,2a2,2,0,0,0,1.72,2.83c.26,0,.51,0,.75.06.39,0,.81.07,1.23.07A4.33,4.33,0,0,0,24.08,59a10.35,10.35,0,0,1,2.71-3.52,37.6,37.6,0,0,0,4-4.53,29.54,29.54,0,0,1,4.09-4.49l.09-.08h0a29.92,29.92,0,0,0-1.2,9.06C34,58,36.24,61.94,39.08,62c.4,0,.82,0,1.26,0s1,.06,1.53.06a7.4,7.4,0,0,0,5.67-2.23,17.73,17.73,0,0,1,2.7-2.12,26.12,26.12,0,0,0,2.62-2A39.58,39.58,0,0,0,57,51.28l1.31-1.54a39.19,39.19,0,0,0,4.82-7,2.86,2.86,0,0,0,.82.11,3.94,3.94,0,0,0,.81-.09,6.18,6.18,0,0,0,5.16-5.22,2,2,0,0,0-.73-1.91L69,35.38a3.6,3.6,0,0,0-2.32-1.45c.08-.51.13-1,.16-1.56,0-.06.2-6.42-1.52-8.67a2.83,2.83,0,0,0-2.13-1h-.23a2.62,2.62,0,0,0-1.93.8,2.68,2.68,0,0,0-.71,2v.21a5,5,0,0,0,.41,2.06c.9,1.87.58,3.95.11,5.91a28.52,28.52,0,0,1-3.12,7c-.3.54-.6,1.08-.89,1.62a15,15,0,0,1-1.59,2.21l-.46.57c-.3.37-.59.76-.88,1.15-.49.64-.94,1.24-1.4,1.75l-.09.1c-3.28,3.65-6.38,7.1-10.79,8.81A1.54,1.54,0,0,1,41,57a.74.74,0,0,1-.82-.75,24.27,24.27,0,0,1,2.61-13c.31-.6.58-1.21.85-1.8A19.28,19.28,0,0,1,45,38.77a6.23,6.23,0,0,0,.72-4.67l-.06-.46a3.6,3.6,0,0,0-3.51-3,3,3,0,0,0-.59.06,1.66,1.66,0,0,0-.42.12,4.45,4.45,0,0,0-2.34,2.58,3.74,3.74,0,0,1-.26.53A36.94,36.94,0,0,0,33.9,39c-.41.51-.82,1-1.23,1.51.37-.91.73-1.83,1.08-2.78.25-.68.51-1.36.77-2,1.5-3.87,3-7.86,2.36-12.59A2,2,0,0,0,36.33,22c-2.79-2.86-4.26-4.23-7.14-4.23Z"/><path class="cls-1" d="M140.9,60.16a1,1,0,0,1-.53-.15,7,7,0,0,0-2-.74c-1.63-.45-3.66-1-4.47-3.62-.73-2.36-.76-3.16.72-5,2.54-3.27,6.31-4.19,9.63-5l1.18-.29a47.56,47.56,0,0,1,8.65-1.58l-1.63-2.28c-2.06-2.88-4-5.61-5.9-8.44-1.76-2.65-2.37-4.95-1.88-7s2.09-3.9,4.74-5.42a28.45,28.45,0,0,1,14.37-4.14l1,0c.6,0,1.21,0,1.81,0l3.36,0c4.16,0,5.73,1.87,7.17,5.27a6.16,6.16,0,0,1,0,4.43,8.12,8.12,0,0,0-.34,1.67c0,.29-.16,1-1.22,1h-.95a1,1,0,0,1-1-1v-4.6l-3-3a32.61,32.61,0,0,0-6.07-.61,22.53,22.53,0,0,0-15.35,5.68c-.59,3.48.42,6.32,3.35,9.46A69.77,69.77,0,0,1,157.54,41c.67.9,1.35,1.82,2.07,2.76h5.26a1,1,0,0,1,1,.75,1,1,0,0,1-.48,1.12,6.63,6.63,0,0,1-3.58.86h-.18a6.32,6.32,0,0,0-.64,0,1.16,1.16,0,0,0,0,.79c1.47,2.35.54,4.33-.22,5.93a13.22,13.22,0,0,0-.53,1.22c-.84,2.24-2.62,3-4.19,3.59-.41.17-.84.34-1.25.54a18.34,18.34,0,0,1-8.39,1.58l-1.73,0-1.7,0c-.66,0-1.32,0-2,0Zm2.8-2.87a2.35,2.35,0,0,1,.47,0,2.62,2.62,0,0,0,.57.06,7.58,7.58,0,0,0,2-.42,8.53,8.53,0,0,1,2.61-.52,4.28,4.28,0,0,1,.81.07,1,1,0,0,1,.2-.14,2.23,2.23,0,0,1,.88-.37c2.72-.36,4.42-2.21,6.19-4.21,0-.24,0-.49,0-.73a6.3,6.3,0,0,0-.72-3.79,3.91,3.91,0,0,0-.49,0,9,9,0,0,0-2.24.4c-.5.13-1,.27-1.54.36-4.56.75-9.35,1.83-13.6,4.7-.54.36-1.18.91-1.2,1.43s.51,1.15,1.48,1.87a2.24,2.24,0,0,0,1.41.32,3.3,3.3,0,0,1,2.65,1h.49Z"/><path class="cls-2" d="M163.81,17.39l.92,0c.61,0,1.23,0,1.85,0l3,0h.32c3.5,0,4.86,1.36,6.25,4.66.92,2.16-.33,3.79-.43,5.66a.82.82,0,0,1-.22,0h-.95v-5c-1.28-1.27-2.41-2.41-3.54-3.54a33.51,33.51,0,0,0-6.57-.69,23.72,23.72,0,0,0-16.27,6.15c-.87,4.41.7,7.63,3.53,10.67,2.6,2.77,4.72,6,7.37,9.43h5.76a5.6,5.6,0,0,1-3.09.73h-.19a4.47,4.47,0,0,0-1.23.12,2,2,0,0,0-.25,2.23c1.5,2.4-.09,4.23-.85,6.26-.88,2.35-3,2.63-4.94,3.58a17.28,17.28,0,0,1-7.95,1.48c-1.14,0-2.28,0-3.43,0-.68,0-1.36,0-2,0-2-1.27-5-.67-6-3.8-.66-2.11-.7-2.55.55-4.15,2.46-3.16,6.17-3.93,9.63-4.78a42.61,42.61,0,0,1,10.39-1.74H156c-3-4.22-5.89-8.17-8.6-12.25-2.48-3.71-3.29-7.71,2.52-11a27.47,27.47,0,0,1,13.87-4M143.2,58.31l.51,0a1.06,1.06,0,0,1,.25,0,3.44,3.44,0,0,0,.78.08c1.59,0,3-.94,4.64-.94a3.47,3.47,0,0,1,.64.06h.14c.51,0,.88-.47,1.24-.52,3.23-.42,5.14-2.65,7.06-4.83-.05-2,.3-4-1.15-5.8a4.92,4.92,0,0,0-1.06-.12,24.21,24.21,0,0,0-3.95.77c-5,.82-9.74,2-14,4.86-2.37,1.6-2.06,3.21.24,4.93,1.34,1,2.92,0,3.93,1.19a.85.85,0,0,0,.72.31m21.67-13.56h0m-1.07-29.36a29.43,29.43,0,0,0-14.87,4.27c-2.9,1.67-4.66,3.71-5.21,6.06s.1,4.94,2,7.83,3.85,5.59,5.92,8.48l.61.85a58.41,58.41,0,0,0-7.06,1.45l-.63.15-.55.14c-3.48.85-7.42,1.82-10.18,5.36-1.78,2.28-1.64,3.51-.88,6,1,3.13,3.49,3.82,5.16,4.28a7.09,7.09,0,0,1,1.69.62,1.94,1.94,0,0,0,1.07.31H141c.57,0,1.18,0,1.92,0l1.69,0,1.74,0a19.38,19.38,0,0,0,8.83-1.68c.37-.18.77-.34,1.19-.51,1.67-.68,3.75-1.52,4.74-4.17.14-.36.32-.74.51-1.15.7-1.48,1.73-3.65.55-6.16a7.45,7.45,0,0,0,3.61-1,2,2,0,0,0-.92-3.77H160.1c-.6-.8-1.19-1.59-1.75-2.36A72.54,72.54,0,0,0,153.21,34c-2.63-2.8-3.57-5.24-3.15-8.25a21.53,21.53,0,0,1,14.42-5.2,30.78,30.78,0,0,1,5.59.54l2.52,2.52v4.18a2,2,0,0,0,2,2h.95a2,2,0,0,0,2.22-1.91,7.31,7.31,0,0,1,.31-1.45,7.2,7.2,0,0,0,0-5.09c-1.53-3.61-3.42-5.86-8.08-5.88h-3.37c-.69,0-1.25,0-1.78,0l-1,0ZM138.7,54.18a2.79,2.79,0,0,1,.73-.65c4.09-2.75,8.76-3.81,13.2-4.54a14.5,14.5,0,0,0,1.63-.37,8.52,8.52,0,0,1,1.88-.37,6.93,6.93,0,0,1,.32,2.81v.36c-1.6,1.81-3.08,3.3-5.33,3.6a3.11,3.11,0,0,0-1.19.46,5.12,5.12,0,0,0-.56,0,9.77,9.77,0,0,0-2.91.56,6.4,6.4,0,0,1-1.73.38,1.37,1.37,0,0,1-.36,0,3.71,3.71,0,0,0-.67-.06h-.11a4.44,4.44,0,0,0-3-1c-.48,0-.73,0-.84-.12a3.68,3.68,0,0,1-1.05-1Z"/><path class="cls-1" d="M220.73,61.8a4.36,4.36,0,0,1-2.81-1.57,2.92,2.92,0,0,1-1.08-2.67,35,35,0,0,1-3.1,1.87c-.64.36-1.27.72-1.89,1.09a3.2,3.2,0,0,1-1.7.51,4.49,4.49,0,0,1-2.68-1.14l-.21-.15a4.51,4.51,0,0,1-1.61-4.44c0-.09,5.14-12.57,5.92-13.37a2.3,2.3,0,0,1,1.72-.73,5,5,0,0,1,1.41.27,1.16,1.16,0,0,1,.65.54c.9,1.88.11,3.46-.53,4.73l-.23.48c-1.19,2.49-2.63,5.44-4.32,8.32a1.3,1.3,0,0,0-.15.73v.15h.26a4.34,4.34,0,0,0,2-.55,22.14,22.14,0,0,0,9.87-8.5,3.28,3.28,0,0,1,.67-.74,3.07,3.07,0,0,0,.26-.25.91.91,0,0,0,.1-.16l-.08-.08a1.84,1.84,0,0,1-.58-2.26.89.89,0,0,1,.27-.34l.09-.09a1.65,1.65,0,0,1,1-.58h.17c.37,0,.74-.07,1.1-.07a5.26,5.26,0,0,1,1,.1l.13,0a2,2,0,0,0,.92-.47,3.59,3.59,0,0,1,2.12-.84,2.83,2.83,0,0,1,.9.15c.38.12.75.27,1.12.41a8,8,0,0,0,2.86.74l.36,0c.49,0,1-.07,1.55-.07a27.07,27.07,0,0,1,3.42.25,1,1,0,0,1,.86.8,1,1,0,0,1-.51,1.07c-1.37.74-1.93,1.18-2,2.56-.07,1.73-1.37,3.16-2.42,4.3l-.47.52c-3.11,3.55-6.88,7.41-12.4,8.57A2.85,2.85,0,0,1,220.73,61.8ZM229,46.66a30,30,0,0,0-6.76,9.19,6.63,6.63,0,0,1-.51.87c-.36.56-.56.89-.49,1.3h0c3.68-1.51,7-4.11,10.66-8.32a3.47,3.47,0,0,0,1.06-3Z"/><path class="cls-2" d="M213.29,42.2a3.94,3.94,0,0,1,1.15.24c.79,1.64-.12,3-.75,4.35-1.33,2.79-2.72,5.58-4.28,8.24-.49.83-.11,1.49-.5,2.17a5.12,5.12,0,0,0,1.46.23,5.31,5.31,0,0,0,2.4-.65,23.12,23.12,0,0,0,10.3-8.88,7.45,7.45,0,0,1,.83-.86,4.15,4.15,0,0,0,.38-.64c.27-.9-1.26-1.1-.8-2.08.19-.15.37-.42.57-.44.39,0,.8-.08,1.19-.08a3.59,3.59,0,0,1,.81.08,1.37,1.37,0,0,0,.34,0c1.15,0,1.85-1.31,3-1.31a1.77,1.77,0,0,1,.58.1c1.4.46,2.74,1.2,4.3,1.2l.45,0a14.13,14.13,0,0,1,1.46-.07,26.41,26.41,0,0,1,3.29.24c-1.44.79-2.43,1.48-2.5,3.41-.07,1.59-1.6,3-2.64,4.2-3.3,3.75-6.9,7.3-12.15,8.3a2.06,2.06,0,0,1-1.49.83c-.74,0-1.4-.62-2.12-1.3-1.32-1.24-.79-2.26,0-3.39.11-.15-.06-.49-.18-1.18-2.19,2.2-4.78,3.29-7.14,4.74a2.14,2.14,0,0,1-1.17.36,4.08,4.08,0,0,1-2.3-1.1,3.49,3.49,0,0,1-1.23-3.42c.15-.67,5.28-12.49,5.67-12.89a1.35,1.35,0,0,1,1-.42m7.51,17.06c4.81-1.75,8.54-5.1,11.84-8.91a4.3,4.3,0,0,0,1-4.69h-5.09a31.55,31.55,0,0,0-7.27,9.77c-.4.87-1.29,1.62-1.07,2.77.07.4.08.77.55,1.06M213.29,40.2a3.28,3.28,0,0,0-2.43,1c-.3.3-.53.54-3.33,6.93-1.79,4.11-2.76,6.44-2.86,6.93a5.46,5.46,0,0,0,2,5.46l.19.14A5.46,5.46,0,0,0,210.15,62a4.21,4.21,0,0,0,2.22-.65c.6-.37,1.21-.71,1.86-1.07s1.2-.68,1.81-1.05a4.52,4.52,0,0,0,1.2,1.7,5.19,5.19,0,0,0,3.49,1.84,3.73,3.73,0,0,0,2.47-1c5.66-1.29,9.5-5.22,12.67-8.82.14-.17.3-.34.46-.51,1.15-1.27,2.59-2.84,2.67-4.94,0-.79.16-1,1.47-1.73a2,2,0,0,0-.71-3.74,28.83,28.83,0,0,0-3.54-.25c-.57,0-1.12,0-1.65.08h-.26a7.15,7.15,0,0,1-2.49-.67c-.39-.15-.78-.3-1.17-.43a3.67,3.67,0,0,0-1.22-.2,4.61,4.61,0,0,0-2.7,1l-.39.27a5.42,5.42,0,0,0-1.1-.1c-.42,0-.83,0-1.19.07l-.17,0a2.55,2.55,0,0,0-1.65.87l0,0a2,2,0,0,0-.51.67,2.62,2.62,0,0,0,.22,2.72,3.59,3.59,0,0,0-.54.68A20.86,20.86,0,0,1,211.91,55l-.23.11c1.47-2.59,2.74-5.19,3.81-7.44.07-.15.15-.31.23-.46.65-1.31,1.64-3.29.53-5.61a2,2,0,0,0-1.22-1,5.85,5.85,0,0,0-1.74-.33Zm16.1,7.46H232a3.66,3.66,0,0,1-.82,1.38,31.58,31.58,0,0,1-7.81,6.84,29,29,0,0,1,6.07-8.22Z"/><path class="cls-1" d="M234.22,62.07c-1.57,0-1.92-1.34-2.11-2.07a1,1,0,0,1,.37-1l5.58-4.22a7.51,7.51,0,0,1-1.35-2.1c-.12-.25-.24-.49-.37-.72a5.12,5.12,0,0,1-.06-4,7.4,7.4,0,0,1,2.17-3c4.1-2.83,8.34-5.77,13.57-7l.62-.14a16.14,16.14,0,0,1,3.73-.57,6.62,6.62,0,0,1,.77,0,1,1,0,0,1,.91,1c-.07,1.64-.18,4.12-2.41,4.12A5.78,5.78,0,0,1,253.7,42a4.39,4.39,0,0,0-1.58-.31,6.26,6.26,0,0,0-2.43.59,28.32,28.32,0,0,0-3.7,2c-.78.47-1.58,1-2.41,1.4A3.85,3.85,0,0,0,242,47.52c-.86,1.94-.75,2.71.55,4,.27.26.43.26.5.26a1.88,1.88,0,0,0,.81-.28A49.25,49.25,0,0,1,249.4,49a11.87,11.87,0,0,1,2.16-.52,9,9,0,0,0,2.13-.57,15.17,15.17,0,0,1,2.44-.77c.42-.11.86-.22,1.27-.35a1,1,0,0,1,.29,0,1,1,0,0,1,.95.66,2.17,2.17,0,0,1-.19,1.93,2.13,2.13,0,0,1-1.48,1c-3.59.3-6.6,2-9.79,3.74-.62.35-1.24.69-1.87,1l-.1,0a5.06,5.06,0,0,1,.06,2.75,2.84,2.84,0,0,1-1.72,1.83A3.66,3.66,0,0,0,243,60a7.86,7.86,0,0,1-5.07,1.53,10.44,10.44,0,0,0-2.31.28A5.1,5.1,0,0,1,234.22,62.07Zm5.9-4.53h0Z"/><path class="cls-2" d="M256.37,38.26c.23,0,.45,0,.68,0-.1,2.27-.38,3.17-1.41,3.17a4.93,4.93,0,0,1-1.59-.39,5.31,5.31,0,0,0-1.93-.37,7.15,7.15,0,0,0-2.81.67c-2.21.92-4.11,2.33-6.2,3.43a4.88,4.88,0,0,0-2,2.32c-1,2.19-.9,3.47.78,5.08a1.66,1.66,0,0,0,1.19.54,2.84,2.84,0,0,0,1.28-.39,47,47,0,0,1,5.42-2.41c1.42-.53,2.93-.47,4.36-1.12a32.18,32.18,0,0,1,3.58-1.07,1.16,1.16,0,0,1-.8,1.57c-4.54.37-8.21,2.82-12,4.87a5.72,5.72,0,0,1-1.2.32,3.16,3.16,0,0,1,.65,3.16c-.17.86-1.31,1.07-1.93,1.58-2.17,1.8-4.75,1-7,1.61a4.22,4.22,0,0,1-1.13.21c-.69,0-.91-.42-1.14-1.32l6.65-5c-1.49-.75-1.87-2.15-2.52-3.31a4.11,4.11,0,0,1,0-3.12A6.53,6.53,0,0,1,239,45.75c4.09-2.82,8.19-5.66,13.22-6.8a18.67,18.67,0,0,1,4.13-.69M237.18,59.91a.66.66,0,0,0,.75-.8l-.19,0c-.33,0-.63-.14-.44-.14a2.54,2.54,0,0,1,.56.1c.32,0,.63,0,.93,0A2.19,2.19,0,0,0,241,58a1.13,1.13,0,0,0-.09-1,1.3,1.3,0,0,0-.76-.25.33.33,0,0,0-.25.07c-.68.76-1.7,1.24-3.53,2.8.21.11.4.3.61.32h.18m19.19-23.65h0a17.18,17.18,0,0,0-4,.6l-.61.14c-5.42,1.23-9.74,4.22-13.92,7.11a8.44,8.44,0,0,0-2.53,3.45,6.08,6.08,0,0,0,.12,4.85c.12.22.23.44.34.67a11,11,0,0,0,.83,1.49l-1.13.85-3.63,2.74a2,2,0,0,0-.73,2.09,3.2,3.2,0,0,0,3.07,2.82,6.35,6.35,0,0,0,1.68-.28,9.73,9.73,0,0,1,2.07-.24,8.81,8.81,0,0,0,5.67-1.76c.05,0,.24-.14.37-.21a3.73,3.73,0,0,0,2.24-2.51,6.87,6.87,0,0,0,.12-2.43l1.29-.72c3.1-1.71,6-3.33,9.4-3.61a3.15,3.15,0,0,0,2.52-4.24,2,2,0,0,0-1.89-1.32,2,2,0,0,0-.58.08c-.4.13-.82.23-1.24.34a16.33,16.33,0,0,0-2.59.83,8,8,0,0,1-1.9.49,13,13,0,0,0-2.33.58,47.18,47.18,0,0,0-5.66,2.51l-.22.11c-.82-.79-1-1.11-.26-2.76a2.84,2.84,0,0,1,1.14-1.36c.85-.45,1.67-.94,2.45-1.42a27.91,27.91,0,0,1,3.58-1.94,5.43,5.43,0,0,1,2-.51,3.57,3.57,0,0,1,1.23.24,6.34,6.34,0,0,0,2.29.52c3.18,0,3.34-3.43,3.41-5.08a2,2,0,0,0-1.82-2.08c-.28,0-.57,0-.86,0Z"/></g></g></svg>