<svg id="Capa_1" enable-background="new 0 0 512 512" height="512" viewBox="0 0 512 512" width="512" xmlns="http://www.w3.org/2000/svg"><g><g><path d="m203.015 492.614h-41.435c0-36.643 29.811-66.454 66.454-66.454h156.836c17.128 0 31.062-13.934 31.062-31.062s-13.935-31.062-31.062-31.062h-234.865c-19.42 0-37.494-7.628-50.893-21.479-13.144-13.586-20.382-31.705-20.382-51.018v-12.317h41.435v12.317c0 17.418 13.107 31.062 29.839 31.062h234.866c39.976 0 72.498 32.522 72.498 72.497 0 39.976-32.522 72.498-72.498 72.498h-156.836c-13.795 0-25.019 11.223-25.019 25.018z" fill="#ffce62"/></g><g><path d="m10 176.018c0 24.804 12.988 47.797 34.232 60.601l16.078 9.69v32.914h78.683v-32.914l16.078-9.69c21.244-12.804 34.232-35.796 34.232-60.6h-179.303z" fill="#89dd8e"/></g><g><path d="m155.229 55.494c-14.792-8.953-35.416 0-35.416 0v49.688s20.624 8.953 35.416 0z" fill="#d98964"/></g><g><path d="m260.82 47.719-105.591 7.785v49.677l105.591 7.785s10.48 28.334 56.023 28.334h164.816c11.234 0 20.34-9.107 20.34-20.34v-81.234c0-11.234-9.107-20.34-20.34-20.34h-164.816c-45.543 0-56.023 28.333-56.023 28.333z" fill="#d98964"/></g><g><path d="m318.976 19.386h139.021v121.914h-139.021z" fill="#f9f5f3"/></g><g><path d="m119.813 105.181s9.906 15.82 0 36.119c-9.912 20.309 0 34.718 0 34.718h-78.265s-9.661-19.871 12.561-39.701c24.921-22.239 9.214-31.226 15.705-53.141 4.855-16.393 19.613-27.682 49.999-27.682z" fill="#ffce62"/></g><g><path d="m384.871 312.601h-72.358c-5.522 0-10 4.477-10 10s4.478 10 10 10h72.358c34.461 0 62.497 28.036 62.497 62.497s-28.036 62.498-62.497 62.498h-156.837c-19.31 0-35.019 15.709-35.019 35.019 0 5.523 4.478 10 10 10s10-4.477 10-10c0-8.281 6.737-15.019 15.019-15.019h156.837c45.489 0 82.497-37.008 82.497-82.498 0-45.489-37.008-82.497-82.497-82.497z"/><path d="m481.66 9.386h-162.684-2.132c-38.866 0-55.9 18.745-62.228 28.764l-97.225 7.168c-7.593-3.617-16.844-4.677-26.995-3.056-5.534.884-10.056 2.347-12.542 3.261-39.203.604-52.998 19.179-57.629 34.813-2.859 9.653-2.214 17.305-1.695 23.453.768 9.103 1.19 14.117-11.079 25.067-15.037 13.418-18.253 27.218-17.988 37.163h-19.463c-5.522 0-10 4.477-10 10 0 28.138 14.971 54.641 39.07 69.165l11.24 6.774v27.265c0 5.523 4.478 10 10 10h8.42v2.317c0 21.922 8.237 42.51 23.194 57.971 15.3 15.816 35.927 24.526 58.08 24.526h234.866c11.614 0 21.063 9.448 21.063 21.062s-9.448 21.062-21.063 21.062h-156.836c-42.157 0-76.454 34.297-76.454 76.454 0 5.523 4.478 10 10 10s10-4.477 10-10c0-31.129 25.325-56.454 56.454-56.454h156.837c22.642 0 41.063-18.42 41.063-41.062s-18.421-41.062-41.063-41.062h-234.866c-16.686 0-32.207-6.546-43.705-18.432-11.33-11.711-17.569-27.361-17.569-44.065v-2.317h21.436v2.317c0 23.025 17.499 41.062 39.839 41.062h74.303c5.522 0 10-4.477 10-10s-4.478-10-10-10h-74.303c-11.125 0-19.839-9.251-19.839-21.062v-2.317h8.827c5.522 0 10-4.477 10-10v-27.265l11.239-6.774c24.1-14.524 39.071-41.027 39.071-69.165 0-5.523-4.478-10-10-10h-62.998c-1.198-4.312-1.832-11.47 2.494-20.333 4.909-10.059 5.866-19.301 5.227-26.813 1.825.18 3.621.28 5.375.28 6.608 0 12.663-1.289 17.933-3.789l97.282 7.172c6.327 10.019 23.361 28.764 62.228 28.764h2.122.01 162.683c16.729 0 30.34-13.61 30.34-30.34v-81.234c0-16.729-13.61-30.34-30.34-30.34zm-33.663 121.914h-68.423v-101.914h68.423zm-88.423-101.914v101.914h-30.599v-101.914zm-209.666 198.668-16.077 9.69c-3.002 1.81-4.838 5.059-4.838 8.564v22.914h-58.682v-22.914c0-3.506-1.836-6.755-4.838-8.565l-16.078-9.69c-15.241-9.185-25.629-24.737-28.554-42.035h157.622c-2.925 17.298-13.314 32.85-28.555 42.036zm-100.514-62.036c-.204-5.207 1.522-13.449 11.374-22.241 18.27-16.304 18.842-28.032 17.691-41.67-.454-5.392-.848-10.049.942-16.092 3.459-11.676 13.444-18.278 30.411-20.04v39.206c0 1.843.545 3.744 1.524 5.307.069.111 6.757 11.532-.512 26.426-5.314 10.891-6.104 20.991-4.932 29.104zm80.419-68.092v-35.181c4.463-1.075 10.296-1.806 15.417-.607v36.402c-5.108 1.199-10.923.473-15.417-.614zm140.365 11.508c-1.296-3.782-4.627-6.146-8.622-6.441l-96.326-7.102v-31.097l96.326-7.102c3.995-.295 7.326-2.659 8.622-6.441.646-1.521 8.693-18.887 38.798-21.52v101.222c-30.106-2.632-38.152-19.998-38.798-21.519zm221.822 11.526c0 5.702-4.639 10.34-10.34 10.34h-13.663v-101.914h13.663c5.701 0 10.34 4.639 10.34 10.34z"/><path d="m276.359 317.05c-2.775-4.245-8.577-5.629-13.021-3.261-4.975 2.65-6.761 9.114-3.869 13.949 2.767 4.627 8.918 6.195 13.575 3.518 4.94-2.838 6.474-9.473 3.315-14.206-.359-.55.361.54 0 0z"/><path d="m414.931 112.148c5.522 0 10-4.477 10-10v-44.713c0-5.523-4.478-10-10-10s-10 4.477-10 10v44.713c0 5.523 4.477 10 10 10z"/></g></g></svg>